  0
SECTION
  2
HEADER
  9
$ACADVER
  1
AC1018
  9
$ACADMAINTVER
 70
     0
  9
$DWGCODEPAGE
  3
ANSI_1252
  9
$INSBASE
 10
0.0
 20
0.0
 30
0.0
  9
$EXTMIN
 10
-106.7953
 20
-84.6286
 30
0.0
  9
$EXTMAX
 10
106.0895
 20
83.0718
 30
0.0
  9
$LIMMIN
 10
0.0
 20
0.0
  9
$LIMMAX
 10
12.0
 20
9.0
  9
$ORTHOMODE
 70
     0
  9
$REGENMODE
 70
     1
  9
$FILLMODE
 70
     1
  9
$QTEXTMODE
 70
     0
  9
$MIRRTEXT
 70
     1
  9
$LTSCALE
 40
1.0
  9
$ATTMODE
 70
     1
  9
$TEXTSIZE
 40
0.2
  9
$TRACEWID
 40
0.05
  9
$TEXTSTYLE
  7
Standard
  9
$CLAYER
  8
0
  9
$CELTYPE
  6
ByLayer
  9
$CECOLOR
 62
   256
  9
$CELTSCALE
 40
1.0
  9
$DISPSILH
 70
     0
  9
$DIMSCALE
 40
1.0
  9
$DIMASZ
 40
0.18
  9
$DIMEXO
 40
0.0625
  9
$DIMDLI
 40
0.38
  9
$DIMRND
 40
0.0
  9
$DIMDLE
 40
0.0
  9
$DIMEXE
 40
0.18
  9
$DIMTP
 40
0.0
  9
$DIMTM
 40
0.0
  9
$DIMTXT
 40
0.18
  9
$DIMCEN
 40
0.09
  9
$DIMTSZ
 40
0.0
  9
$DIMTOL
 70
     0
  9
$DIMLIM
 70
     0
  9
$DIMTIH
 70
     1
  9
$DIMTOH
 70
     1
  9
$DIMSE1
 70
     0
  9
$DIMSE2
 70
     0
  9
$DIMTAD
 70
     0
  9
$DIMZIN
 70
     0
  9
$DIMBLK
  1

  9
$DIMASO
 70
     1
  9
$DIMSHO
 70
     1
  9
$DIMPOST
  1

  9
$DIMAPOST
  1

  9
$DIMALT
 70
     0
  9
$DIMALTD
 70
     2
  9
$DIMALTF
 40
25.4
  9
$DIMLFAC
 40
1.0
  9
$DIMTOFL
 70
     0
  9
$DIMTVP
 40
0.0
  9
$DIMTIX
 70
     0
  9
$DIMSOXD
 70
     0
  9
$DIMSAH
 70
     0
  9
$DIMBLK1
  1

  9
$DIMBLK2
  1

  9
$DIMSTYLE
  2
Standard
  9
$DIMCLRD
 70
     0
  9
$DIMCLRE
 70
     0
  9
$DIMCLRT
 70
     0
  9
$DIMTFAC
 40
1.0
  9
$DIMGAP
 40
0.09
  9
$DIMJUST
 70
     0
  9
$DIMSD1
 70
     0
  9
$DIMSD2
 70
     0
  9
$DIMTOLJ
 70
     1
  9
$DIMTZIN
 70
     0
  9
$DIMALTZ
 70
     0
  9
$DIMALTTZ
 70
     0
  9
$DIMUPT
 70
     0
  9
$DIMDEC
 70
     4
  9
$DIMTDEC
 70
     4
  9
$DIMALTU
 70
     2
  9
$DIMALTTD
 70
     2
  9
$DIMTXSTY
  7
Standard
  9
$DIMAUNIT
 70
     0
  9
$DIMADEC
 70
     0
  9
$DIMALTRND
 40
0.0
  9
$DIMAZIN
 70
     0
  9
$DIMDSEP
 70
    46
  9
$DIMATFIT
 70
     3
  9
$DIMFRAC
 70
     0
  9
$DIMLDRBLK
  1

  9
$DIMLUNIT
 70
     2
  9
$DIMLWD
 70
    -2
  9
$DIMLWE
 70
    -2
  9
$DIMTMOVE
 70
     0
  9
$LUNITS
 70
     2
  9
$LUPREC
 70
     4
  9
$SKETCHINC
 40
0.1
  9
$FILLETRAD
 40
0.5
  9
$AUNITS
 70
     0
  9
$AUPREC
 70
     0
  9
$MENU
  1
.
  9
$ELEVATION
 40
0.0
  9
$PELEVATION
 40
0.0
  9
$THICKNESS
 40
0.0
  9
$LIMCHECK
 70
     0
  9
$CHAMFERA
 40
0.5
  9
$CHAMFERB
 40
0.5
  9
$CHAMFERC
 40
1.0
  9
$CHAMFERD
 40
0.0
  9
$SKPOLY
 70
     0
  9
$TDCREATE
 40
2456354.692844329
  9
$TDUCREATE
 40
2456354.984510995
  9
$TDUPDATE
 40
2456354.69284434
  9
$TDUUPDATE
 40
2456354.984511007
  9
$TDINDWG
 40
0.0000000116
  9
$TDUSRTIMER
 40
0.0000000116
  9
$USRTIMER
 70
     1
  9
$ANGBASE
 50
0.0
  9
$ANGDIR
 70
     0
  9
$PDMODE
 70
     0
  9
$PDSIZE
 40
0.0
  9
$PLINEWID
 40
0.0
  9
$SPLFRAME
 70
     0
  9
$SPLINETYPE
 70
     6
  9
$SPLINESEGS
 70
     8
  9
$HANDSEED
  5
74
  9
$SURFTAB1
 70
     6
  9
$SURFTAB2
 70
     6
  9
$SURFTYPE
 70
     6
  9
$SURFU
 70
     6
  9
$SURFV
 70
     6
  9
$UCSBASE
  2

  9
$UCSNAME
  2

  9
$UCSORG
 10
0.0
 20
0.0
 30
0.0
  9
$UCSXDIR
 10
1.0
 20
0.0
 30
0.0
  9
$UCSYDIR
 10
0.0
 20
1.0
 30
0.0
  9
$UCSORTHOREF
  2

  9
$UCSORTHOVIEW
 70
     0
  9
$UCSORGTOP
 10
0.0
 20
0.0
 30
0.0
  9
$UCSORGBOTTOM
 10
0.0
 20
0.0
 30
0.0
  9
$UCSORGLEFT
 10
0.0
 20
0.0
 30
0.0
  9
$UCSORGRIGHT
 10
0.0
 20
0.0
 30
0.0
  9
$UCSORGFRONT
 10
0.0
 20
0.0
 30
0.0
  9
$UCSORGBACK
 10
0.0
 20
0.0
 30
0.0
  9
$PUCSBASE
  2

  9
$PUCSNAME
  2

  9
$PUCSORG
 10
0.0
 20
0.0
 30
0.0
  9
$PUCSXDIR
 10
1.0
 20
0.0
 30
0.0
  9
$PUCSYDIR
 10
0.0
 20
1.0
 30
0.0
  9
$PUCSORTHOREF
  2

  9
$PUCSORTHOVIEW
 70
     0
  9
$PUCSORGTOP
 10
0.0
 20
0.0
 30
0.0
  9
$PUCSORGBOTTOM
 10
0.0
 20
0.0
 30
0.0
  9
$PUCSORGLEFT
 10
0.0
 20
0.0
 30
0.0
  9
$PUCSORGRIGHT
 10
0.0
 20
0.0
 30
0.0
  9
$PUCSORGFRONT
 10
0.0
 20
0.0
 30
0.0
  9
$PUCSORGBACK
 10
0.0
 20
0.0
 30
0.0
  9
$USERI1
 70
     0
  9
$USERI2
 70
     0
  9
$USERI3
 70
     0
  9
$USERI4
 70
     0
  9
$USERI5
 70
     0
  9
$USERR1
 40
0.0
  9
$USERR2
 40
0.0
  9
$USERR3
 40
0.0
  9
$USERR4
 40
0.0
  9
$USERR5
 40
0.0
  9
$WORLDVIEW
 70
     1
  9
$SHADEDGE
 70
     3
  9
$SHADEDIF
 70
    70
  9
$TILEMODE
 70
     1
  9
$MAXACTVP
 70
    64
  9
$PINSBASE
 10
0.0
 20
0.0
 30
0.0
  9
$PLIMCHECK
 70
     0
  9
$PEXTMIN
 10
1.000000000000000E+20
 20
1.000000000000000E+20
 30
1.000000000000000E+20
  9
$PEXTMAX
 10
-1.000000000000000E+20
 20
-1.000000000000000E+20
 30
-1.000000000000000E+20
  9
$PLIMMIN
 10
0.0
 20
0.0
  9
$PLIMMAX
 10
12.0
 20
9.0
  9
$UNITMODE
 70
     0
  9
$VISRETAIN
 70
     1
  9
$PLINEGEN
 70
     0
  9
$PSLTSCALE
 70
     1
  9
$TREEDEPTH
 70
  3020
  9
$CMLSTYLE
  2
Standard
  9
$CMLJUST
 70
     0
  9
$CMLSCALE
 40
1.0
  9
$PROXYGRAPHICS
 70
     1
  9
$MEASUREMENT
 70
     0
  9
$CELWEIGHT
370
    -1
  9
$ENDCAPS
280
     0
  9
$JOINSTYLE
280
     0
  9
$LWDISPLAY
290
     0
  9
$INSUNITS
 70
     4
  9
$HYPERLINKBASE
  1

  9
$STYLESHEET
  1

  9
$XEDIT
290
     1
  9
$CEPSNTYPE
380
     0
  9
$PSTYLEMODE
290
     1
  9
$FINGERPRINTGUID
  2
{82497B0D-5C7F-473E-BFA5-CD00C3055E26}
  9
$VERSIONGUID
  2
{FAEB1C32-E019-11D5-929B-00C0DF256EC4}
  9
$EXTNAMES
290
     1
  9
$PSVPSCALE
 40
0.0
  9
$OLESTARTUP
290
     0
  9
$SORTENTS
280
   127
  9
$INDEXCTL
280
     0
  9
$HIDETEXT
280
     1
  9
$XCLIPFRAME
290
     0
  9
$HALOGAP
280
     0
  9
$OBSCOLOR
 70
   257
  9
$OBSLTYPE
280
     0
  9
$INTERSECTIONDISPLAY
280
     0
  9
$INTERSECTIONCOLOR
 70
   257
  9
$DIMASSOC
280
     2
  9
$PROJECTNAME
  1

  0
ENDSEC
  0
SECTION
  2
CLASSES
  0
CLASS
  1
ACDBDICTIONARYWDFLT
  2
AcDbDictionaryWithDefault
  3
ObjectDBX Classes
 90
        0
 91
        4
280
     0
281
     0
  0
CLASS
  1
VISUALSTYLE
  2
AcDbVisualStyle
  3
ObjectDBX Classes
 90
     4095
 91
        4
280
     0
281
     0
  0
CLASS
  1
MATERIAL
  2
AcDbMaterial
  3
ObjectDBX Classes
 90
     1153
 91
        4
280
     0
281
     0
  0
ENDSEC
  0
SECTION
  2
TABLES
  0
TABLE
  2
VPORT
  5
8
330
0
100
AcDbSymbolTable
 70
     1
  0
VPORT
  5
29
330
8
100
AcDbSymbolTableRecord
100
AcDbViewportTableRecord
  2
*Active
 70
     0
 10
0.0
 20
0.0
 11
1.0
 21
1.0
 12
10.42990654205607
 22
4.5
 13
0.0
 23
0.0
 14
0.5
 24
0.5
 15
0.5
 25
0.5
 16
0.0
 26
0.0
 36
1.0
 17
0.0
 27
0.0
 37
0.0
 40
9.0
 41
1.972972972850329
 42
50.0
 43
0.0
 44
0.0
 50
0.0
 51
0.0
 71
     0
 72
   100
 73
     1
 74
     3
 75
     0
 76
     0
 77
     0
 78
     0
281
     0
 65
     1
110
0.0
120
0.0
130
0.0
111
1.0
121
0.0
131
0.0
112
0.0
122
1.0
132
0.0
 79
     0
146
0.0
  0
ENDTAB
  0
TABLE
  2
LTYPE
  5
5
330
0
100
AcDbSymbolTable
 70
     1
  0
LTYPE
  5
14
330
5
100
AcDbSymbolTableRecord
100
AcDbLinetypeTableRecord
  2
ByBlock
 70
     0
  3

 72
    65
 73
     0
 40
0.0
  0
LTYPE
  5
15
330
5
100
AcDbSymbolTableRecord
100
AcDbLinetypeTableRecord
  2
ByLayer
 70
     0
  3

 72
    65
 73
     0
 40
0.0
  0
LTYPE
  5
16
330
5
100
AcDbSymbolTableRecord
100
AcDbLinetypeTableRecord
  2
Continuous
 70
     0
  3
Solid line
 72
    65
 73
     0
 40
0.0
  0
ENDTAB
  0
TABLE
  2
LAYER
  5
2
330
0
100
AcDbSymbolTable
 70
     2
  0
LAYER
  5
10
330
2
100
AcDbSymbolTableRecord
100
AcDbLayerTableRecord
  2
0
 70
     0
 62
     7
  6
Continuous
370
    -3
390
F
  0
LAYER
  5
40
330
2
100
AcDbSymbolTableRecord
100
AcDbLayerTableRecord
  2
Layer 1
 70
     0
 62
     7
  6
Continuous
370
    -3
390
F
  0
ENDTAB
  0
TABLE
  2
STYLE
  5
3
330
0
100
AcDbSymbolTable
 70
     1
  0
STYLE
  5
11
330
3
100
AcDbSymbolTableRecord
100
AcDbTextStyleTableRecord
  2
Standard
 70
     0
 40
0.0
 41
1.0
 50
0.0
 71
     0
 42
0.2
  3
txt
  4

  0
ENDTAB
  0
TABLE
  2
VIEW
  5
6
330
0
100
AcDbSymbolTable
 70
     0
  0
ENDTAB
  0
TABLE
  2
UCS
  5
7
330
0
100
AcDbSymbolTable
 70
     0
  0
ENDTAB
  0
TABLE
  2
APPID
  5
9
330
0
100
AcDbSymbolTable
 70
     2
  0
APPID
  5
12
330
9
100
AcDbSymbolTableRecord
100
AcDbRegAppTableRecord
  2
ACAD
 70
     0
  0
APPID
  5
3F
330
9
100
AcDbSymbolTableRecord
100
AcDbRegAppTableRecord
  2
ODA
 70
     0
  0
ENDTAB
  0
TABLE
  2
DIMSTYLE
  5
A
330
0
100
AcDbSymbolTable
 70
     1
100
AcDbDimStyleTable
  0
DIMSTYLE
105
27
330
A
100
AcDbSymbolTableRecord
100
AcDbDimStyleTableRecord
  2
Standard
 70
     0
178
     0
340
11
  0
ENDTAB
  0
TABLE
  2
BLOCK_RECORD
  5
1
330
0
100
AcDbSymbolTable
 70
     1
  0
BLOCK_RECORD
  5
1F
330
1
100
AcDbSymbolTableRecord
100
AcDbBlockTableRecord
  2
*Model_Space
340
22
  0
BLOCK_RECORD
  5
1B
330
1
100
AcDbSymbolTableRecord
100
AcDbBlockTableRecord
  2
*Paper_Space
340
1E
  0
BLOCK_RECORD
  5
23
330
1
100
AcDbSymbolTableRecord
100
AcDbBlockTableRecord
  2
*Paper_Space0
340
26
  0
ENDTAB
  0
ENDSEC
  0
SECTION
  2
BLOCKS
  0
BLOCK
  5
20
330
1F
100
AcDbEntity
  8
0
100
AcDbBlockBegin
  2
*Model_Space
 70
     0
 10
0.0
 20
0.0
 30
0.0
  3
*Model_Space
  1

  0
ENDBLK
  5
21
330
1F
100
AcDbEntity
  8
0
100
AcDbBlockEnd
  0
BLOCK
  5
1C
330
1B
100
AcDbEntity
 67
     1
  8
0
100
AcDbBlockBegin
  2
*Paper_Space
 70
     0
 10
0.0
 20
0.0
 30
0.0
  3
*Paper_Space
  1

  0
ENDBLK
  5
1D
330
1B
100
AcDbEntity
 67
     1
  8
0
100
AcDbBlockEnd
  0
BLOCK
  5
24
330
23
100
AcDbEntity
  8
0
100
AcDbBlockBegin
  2
*Paper_Space0
 70
     0
 10
0.0
 20
0.0
 30
0.0
  3
*Paper_Space0
  1

  0
ENDBLK
  5
25
330
23
100
AcDbEntity
  8
0
100
AcDbBlockEnd
  0
ENDSEC
  0
SECTION
  2
ENTITIES
  0
SPLINE
  5
41
330
1F
100
AcDbEntity
  8
Layer 1
 62
    23
100
AcDbSpline
210
0.0
220
0.0
230
1.0
 70
    11
 71
     3
 72
    16
 73
    12
 74
     0
 42
0.0000000001
 43
0.0000000001
 40
0.0
 40
0.0
 40
0.0
 40
0.0
 40
0.25
 40
0.25
 40
0.25
 40
0.25
 40
0.5
 40
0.5
 40
0.5
 40
0.5
 40
1.0
 40
1.0
 40
1.0
 40
1.0
 10
20.1218
 20
64.8374
 30
0.0
 10
18.3166
 20
63.1941
 30
0.0
 10
16.3915
 20
62.0522
 30
0.0
 10
14.4318
 20
60.8401
 30
0.0
 10
14.4318
 20
60.8401
 30
0.0
 10
9.3088
 20
57.6718
 30
0.0
 10
3.1055
 20
49.7004
 30
0.0
 10
-3.9849
 20
54.7031
 30
0.0
 10
-3.9849
 20
54.7031
 30
0.0
 10
-0.6755
 20
69.0122
 30
0.0
 10
11.5831
 20
66.2298
 30
0.0
 10
20.1218
 20
64.8374
 30
0.0
  0
SPLINE
  5
42
330
1F
100
AcDbEntity
  8
Layer 1
 62
    23
100
AcDbSpline
210
0.0
220
0.0
230
1.0
 70
    11
 71
     3
 72
    32
 73
    28
 74
     0
 42
0.0000000001
 43
0.0000000001
 40
0.0
 40
0.0
 40
0.0
 40
0.0
 40
0.125
 40
0.125
 40
0.125
 40
0.125
 40
0.25
 40
0.25
 40
0.25
 40
0.25
 40
0.375
 40
0.375
 40
0.375
 40
0.375
 40
0.5
 40
0.5
 40
0.5
 40
0.5
 40
0.625
 40
0.625
 40
0.625
 40
0.625
 40
0.75
 40
0.75
 40
0.75
 40
0.75
 40
1.0
 40
1.0
 40
1.0
 40
1.0
 10
-3.1277
 20
39.1463
 30
0.0
 10
3.6227
 20
39.5235
 30
0.0
 10
7.2905
 20
44.0256
 30
0.0
 10
14.1263
 20
48.5659
 30
0.0
 10
14.1263
 20
48.5659
 30
0.0
 10
11.3838
 20
44.1727
 30
0.0
 10
5.926
 20
43.2121
 30
0.0
 10
3.6552
 20
36.9334
 30
0.0
 10
3.6552
 20
36.9334
 30
0.0
 10
1.4891
 20
30.9439
 30
0.0
 10
2.4444
 20
30.0507
 30
0.0
 10
5.6946
 20
29.7543
 30
0.0
 10
5.6946
 20
29.7543
 30
0.0
 10
1.1695
 20
26.6323
 30
0.0
 10
-2.9682
 20
28.9112
 30
0.0
 10
-6.5546
 20
35.4362
 30
0.0
 10
-6.5546
 20
35.4362
 30
0.0
 10
-6.1083
 20
31.8618
 30
0.0
 10
-5.3826
 20
28.9394
 30
0.0
 10
-5.3311
 20
24.4447
 30
0.0
 10
-5.3311
 20
24.4447
 30
0.0
 10
-7.1388
 20
40.0872
 30
0.0
 10
-22.5033
 20
51.0794
 30
0.0
 10
-24.6348
 20
53.3661
 30
0.0
 10
-24.6348
 20
53.3661
 30
0.0
 10
-18.5621
 20
47.8956
 30
0.0
 10
-8.6388
 20
38.8387
 30
0.0
 10
-3.1277
 20
39.1463
 30
0.0
  0
SPLINE
  5
43
330
1F
100
AcDbEntity
  8
Layer 1
 62
    23
100
AcDbSpline
210
0.0
220
0.0
230
1.0
 70
    11
 71
     3
 72
    20
 73
    16
 74
     0
 42
0.0000000001
 43
0.0000000001
 40
0.0
 40
0.0
 40
0.0
 40
0.0
 40
0.2
 40
0.2
 40
0.2
 40
0.2
 40
0.4
 40
0.4
 40
0.4
 40
0.4
 40
0.6
 40
0.6
 40
0.6
 40
0.6
 40
1.0
 40
1.0
 40
1.0
 40
1.0
 10
-72.6299
 20
14.6396
 30
0.0
 10
-72.6299
 20
14.6396
 30
0.0
 10
-80.6301
 20
14.6396
 30
0.0
 10
-80.6301
 20
14.6396
 30
0.0
 10
-80.6301
 20
14.6396
 30
0.0
 10
-80.6301
 20
14.6396
 30
0.0
 10
-80.6301
 20
22.6395
 30
0.0
 10
-80.6301
 20
22.6395
 30
0.0
 10
-80.6301
 20
22.6395
 30
0.0
 10
-80.6301
 20
22.6395
 30
0.0
 10
-72.6299
 20
22.6395
 30
0.0
 10
-72.6299
 20
22.6395
 30
0.0
 10
-72.6299
 20
22.6395
 30
0.0
 10
-72.6299
 20
22.6395
 30
0.0
 10
-72.6299
 20
14.6396
 30
0.0
 10
-72.6299
 20
14.6396
 30
0.0
  0
SPLINE
  5
44
330
1F
100
AcDbEntity
  8
Layer 1
 62
    23
100
AcDbSpline
210
0.0
220
0.0
230
1.0
 70
    11
 71
     3
 72
    20
 73
    16
 74
     0
 42
0.0000000001
 43
0.0000000001
 40
0.0
 40
0.0
 40
0.0
 40
0.0
 40
0.2
 40
0.2
 40
0.2
 40
0.2
 40
0.4
 40
0.4
 40
0.4
 40
0.4
 40
0.6
 40
0.6
 40
0.6
 40
0.6
 40
1.0
 40
1.0
 40
1.0
 40
1.0
 10
-87.3897
 20
41.6391
 30
0.0
 10
-87.3897
 20
41.6391
 30
0.0
 10
-79.3898
 20
41.6391
 30
0.0
 10
-79.3898
 20
41.6391
 30
0.0
 10
-79.3898
 20
41.6391
 30
0.0
 10
-79.3898
 20
41.6391
 30
0.0
 10
-79.3898
 20
33.6391
 30
0.0
 10
-79.3898
 20
33.6391
 30
0.0
 10
-79.3898
 20
33.6391
 30
0.0
 10
-79.3898
 20
33.6391
 30
0.0
 10
-87.3897
 20
33.6391
 30
0.0
 10
-87.3897
 20
33.6391
 30
0.0
 10
-87.3897
 20
33.6391
 30
0.0
 10
-87.3897
 20
33.6391
 30
0.0
 10
-87.3897
 20
41.6391
 30
0.0
 10
-87.3897
 20
41.6391
 30
0.0
  0
SPLINE
  5
45
330
1F
100
AcDbEntity
  8
Layer 1
 62
    23
100
AcDbSpline
210
0.0
220
0.0
230
1.0
 70
    11
 71
     3
 72
    20
 73
    16
 74
     0
 42
0.0000000001
 43
0.0000000001
 40
0.0
 40
0.0
 40
0.0
 40
0.0
 40
0.2
 40
0.2
 40
0.2
 40
0.2
 40
0.4
 40
0.4
 40
0.4
 40
0.4
 40
0.6
 40
0.6
 40
0.6
 40
0.6
 40
1.0
 40
1.0
 40
1.0
 40
1.0
 10
-66.5109
 20
-4.36
 30
0.0
 10
-66.5109
 20
-4.36
 30
0.0
 10
-74.5109
 20
-4.36
 30
0.0
 10
-74.5109
 20
-4.36
 30
0.0
 10
-74.5109
 20
-4.36
 30
0.0
 10
-74.5109
 20
-4.36
 30
0.0
 10
-74.5109
 20
3.64
 30
0.0
 10
-74.5109
 20
3.64
 30
0.0
 10
-74.5109
 20
3.64
 30
0.0
 10
-74.5109
 20
3.64
 30
0.0
 10
-66.5109
 20
3.64
 30
0.0
 10
-66.5109
 20
3.64
 30
0.0
 10
-66.5109
 20
3.64
 30
0.0
 10
-66.5109
 20
3.64
 30
0.0
 10
-66.5109
 20
-4.36
 30
0.0
 10
-66.5109
 20
-4.36
 30
0.0
  0
SPLINE
  5
46
330
1F
100
AcDbEntity
  8
Layer 1
 62
    23
100
AcDbSpline
210
0.0
220
0.0
230
1.0
 70
    11
 71
     3
 72
    20
 73
    16
 74
     0
 42
0.0000000001
 43
0.0000000001
 40
0.0
 40
0.0
 40
0.0
 40
0.0
 40
0.2
 40
0.2
 40
0.2
 40
0.2
 40
0.4
 40
0.4
 40
0.4
 40
0.4
 40
0.6
 40
0.6
 40
0.6
 40
0.6
 40
1.0
 40
1.0
 40
1.0
 40
1.0
 10
-72.6299
 20
-23.3599
 30
0.0
 10
-72.6299
 20
-23.3599
 30
0.0
 10
-80.6301
 20
-23.3599
 30
0.0
 10
-80.6301
 20
-23.3599
 30
0.0
 10
-80.6301
 20
-23.3599
 30
0.0
 10
-80.6301
 20
-23.3599
 30
0.0
 10
-80.6301
 20
-15.3599
 30
0.0
 10
-80.6301
 20
-15.3599
 30
0.0
 10
-80.6301
 20
-15.3599
 30
0.0
 10
-80.6301
 20
-15.3599
 30
0.0
 10
-72.6299
 20
-15.3599
 30
0.0
 10
-72.6299
 20
-15.3599
 30
0.0
 10
-72.6299
 20
-15.3599
 30
0.0
 10
-72.6299
 20
-15.3599
 30
0.0
 10
-72.6299
 20
-23.3599
 30
0.0
 10
-72.6299
 20
-23.3599
 30
0.0
  0
SPLINE
  5
47
330
1F
100
AcDbEntity
  8
Layer 1
 62
    23
100
AcDbSpline
210
0.0
220
0.0
230
1.0
 70
    11
 71
     3
 72
    32
 73
    28
 74
     0
 42
0.0000000001
 43
0.0000000001
 40
0.0
 40
0.0
 40
0.0
 40
0.0
 40
0.125
 40
0.125
 40
0.125
 40
0.125
 40
0.25
 40
0.25
 40
0.25
 40
0.25
 40
0.375
 40
0.375
 40
0.375
 40
0.375
 40
0.5
 40
0.5
 40
0.5
 40
0.5
 40
0.625
 40
0.625
 40
0.625
 40
0.625
 40
0.75
 40
0.75
 40
0.75
 40
0.75
 40
1.0
 40
1.0
 40
1.0
 40
1.0
 10
-6.5546
 20
-37.6146
 30
0.0
 10
-2.9682
 20
-31.0896
 30
0.0
 10
1.1695
 20
-28.8107
 30
0.0
 10
5.6946
 20
-31.9324
 30
0.0
 10
5.6946
 20
-31.9324
 30
0.0
 10
2.4444
 20
-32.2301
 30
0.0
 10
1.4891
 20
-33.1223
 30
0.0
 10
3.6552
 20
-39.1132
 30
0.0
 10
3.6552
 20
-39.1132
 30
0.0
 10
5.926
 20
-45.3905
 30
0.0
 10
11.3838
 20
-46.3511
 30
0.0
 10
14.1263
 20
-50.7457
 30
0.0
 10
14.1263
 20
-50.7457
 30
0.0
 10
7.2905
 20
-46.2051
 30
0.0
 10
3.6227
 20
-41.7026
 30
0.0
 10
-3.1277
 20
-41.3262
 30
0.0
 10
-3.1277
 20
-41.3262
 30
0.0
 10
-7.0238
 20
-41.1085
 30
0.0
 10
-13.1244
 20
-45.5704
 30
0.0
 10
-18.5116
 20
-50.1371
 30
0.0
 10
-18.5116
 20
-50.1371
 30
0.0
 10
-13.2997
 20
-45.1781
 30
0.0
 10
-6.6138
 20
-37.2128
 30
0.0
 10
-5.3311
 20
-26.6248
 30
0.0
 10
-5.3311
 20
-26.6248
 30
0.0
 10
-5.3826
 20
-31.1178
 30
0.0
 10
-6.1083
 20
-34.0406
 30
0.0
 10
-6.5546
 20
-37.6146
 30
0.0
  0
SPLINE
  5
48
330
1F
100
AcDbEntity
  8
Layer 1
 62
    23
100
AcDbSpline
210
0.0
220
0.0
230
1.0
 70
    11
 71
     3
 72
    20
 73
    16
 74
     0
 42
0.0000000001
 43
0.0000000001
 40
0.0
 40
0.0
 40
0.0
 40
0.0
 40
0.2
 40
0.2
 40
0.2
 40
0.2
 40
0.4
 40
0.4
 40
0.4
 40
0.4
 40
0.6
 40
0.6
 40
0.6
 40
0.6
 40
1.0
 40
1.0
 40
1.0
 40
1.0
 10
-87.3897
 20
-34.3595
 30
0.0
 10
-87.3897
 20
-34.3595
 30
0.0
 10
-79.3898
 20
-34.3595
 30
0.0
 10
-79.3898
 20
-34.3595
 30
0.0
 10
-79.3898
 20
-34.3595
 30
0.0
 10
-79.3898
 20
-34.3595
 30
0.0
 10
-79.3898
 20
-42.3594
 30
0.0
 10
-79.3898
 20
-42.3594
 30
0.0
 10
-79.3898
 20
-42.3594
 30
0.0
 10
-79.3898
 20
-42.3594
 30
0.0
 10
-87.3897
 20
-42.3594
 30
0.0
 10
-87.3897
 20
-42.3594
 30
0.0
 10
-87.3897
 20
-42.3594
 30
0.0
 10
-87.3897
 20
-42.3594
 30
0.0
 10
-87.3897
 20
-34.3595
 30
0.0
 10
-87.3897
 20
-34.3595
 30
0.0
  0
SPLINE
  5
49
330
1F
100
AcDbEntity
  8
Layer 1
 62
    23
100
AcDbSpline
210
0.0
220
0.0
230
1.0
 70
    11
 71
     3
 72
    12
 73
     8
 74
     0
 42
0.0000000001
 43
0.0000000001
 40
0.0
 40
0.0
 40
0.0
 40
0.0
 40
0.3333333333333333
 40
0.3333333333333333
 40
0.3333333333333333
 40
0.3333333333333333
 40
1.0
 40
1.0
 40
1.0
 40
1.0
 10
-24.687
 20
-55.5907
 30
0.0
 10
-24.4478
 20
-55.3371
 30
0.0
 10
-24.0442
 20
-54.9843
 30
0.0
 10
-23.5151
 20
-54.5356
 30
0.0
 10
-23.5151
 20
-54.5356
 30
0.0
 10
-23.9194
 20
-54.8996
 30
0.0
 10
-24.3106
 20
-55.2524
 30
0.0
 10
-24.687
 20
-55.5907
 30
0.0
  0
SPLINE
  5
4A
330
1F
100
AcDbEntity
  8
Layer 1
 62
    23
100
AcDbSpline
210
0.0
220
0.0
230
1.0
 70
    11
 71
     3
 72
    16
 73
    12
 74
     0
 42
0.0000000001
 43
0.0000000001
 40
0.0
 40
0.0
 40
0.0
 40
0.0
 40
0.25
 40
0.25
 40
0.25
 40
0.25
 40
0.5
 40
0.5
 40
0.5
 40
0.5
 40
1.0
 40
1.0
 40
1.0
 40
1.0
 10
14.4318
 20
-63.0195
 30
0.0
 10
16.3915
 20
-64.2303
 30
0.0
 10
18.3166
 20
-65.3733
 30
0.0
 10
20.1218
 20
-67.0161
 30
0.0
 10
20.1218
 20
-67.0161
 30
0.0
 10
11.5831
 20
-68.4086
 30
0.0
 10
-0.6755
 20
-71.1909
 30
0.0
 10
-3.9849
 20
-56.8826
 30
0.0
 10
-3.9849
 20
-56.8826
 30
0.0
 10
3.1055
 20
-51.8791
 30
0.0
 10
9.3088
 20
-59.8516
 30
0.0
 10
14.4318
 20
-63.0195
 30
0.0
  0
SPLINE
  5
4B
330
1F
100
AcDbEntity
  8
Layer 1
 62
    23
100
AcDbSpline
210
0.0
220
0.0
230
1.0
 70
    11
 71
     3
 72
   332
 73
   328
 74
     0
 42
0.0000000001
 43
0.0000000001
 40
0.0
 40
0.0
 40
0.0
 40
0.0
 40
0.0120481927710843
 40
0.0120481927710843
 40
0.0120481927710843
 40
0.0120481927710843
 40
0.0240963855421687
 40
0.0240963855421687
 40
0.0240963855421687
 40
0.0240963855421687
 40
0.036144578313253
 40
0.036144578313253
 40
0.036144578313253
 40
0.036144578313253
 40
0.0481927710843374
 40
0.0481927710843374
 40
0.0481927710843374
 40
0.0481927710843374
 40
0.0602409638554217
 40
0.0602409638554217
 40
0.0602409638554217
 40
0.0602409638554217
 40
0.072289156626506
 40
0.072289156626506
 40
0.072289156626506
 40
0.072289156626506
 40
0.0843373493975904
 40
0.0843373493975904
 40
0.0843373493975904
 40
0.0843373493975904
 40
0.0963855421686747
 40
0.0963855421686747
 40
0.0963855421686747
 40
0.0963855421686747
 40
0.108433734939759
 40
0.108433734939759
 40
0.108433734939759
 40
0.108433734939759
 40
0.1204819277108434
 40
0.1204819277108434
 40
0.1204819277108434
 40
0.1204819277108434
 40
0.1325301204819277
 40
0.1325301204819277
 40
0.1325301204819277
 40
0.1325301204819277
 40
0.144578313253012
 40
0.144578313253012
 40
0.144578313253012
 40
0.144578313253012
 40
0.1566265060240964
 40
0.1566265060240964
 40
0.1566265060240964
 40
0.1566265060240964
 40
0.1686746987951807
 40
0.1686746987951807
 40
0.1686746987951807
 40
0.1686746987951807
 40
0.1807228915662651
 40
0.1807228915662651
 40
0.1807228915662651
 40
0.1807228915662651
 40
0.1927710843373494
 40
0.1927710843373494
 40
0.1927710843373494
 40
0.1927710843373494
 40
0.2048192771084337
 40
0.2048192771084337
 40
0.2048192771084337
 40
0.2048192771084337
 40
0.2168674698795181
 40
0.2168674698795181
 40
0.2168674698795181
 40
0.2168674698795181
 40
0.2289156626506024
 40
0.2289156626506024
 40
0.2289156626506024
 40
0.2289156626506024
 40
0.2409638554216867
 40
0.2409638554216867
 40
0.2409638554216867
 40
0.2409638554216867
 40
0.2530120481927711
 40
0.2530120481927711
 40
0.2530120481927711
 40
0.2530120481927711
 40
0.2650602409638554
 40
0.2650602409638554
 40
0.2650602409638554
 40
0.2650602409638554
 40
0.2771084337349398
 40
0.2771084337349398
 40
0.2771084337349398
 40
0.2771084337349398
 40
0.2891566265060241
 40
0.2891566265060241
 40
0.2891566265060241
 40
0.2891566265060241
 40
0.3012048192771085
 40
0.3012048192771085
 40
0.3012048192771085
 40
0.3012048192771085
 40
0.3132530120481928
 40
0.3132530120481928
 40
0.3132530120481928
 40
0.3132530120481928
 40
0.3253012048192771
 40
0.3253012048192771
 40
0.3253012048192771
 40
0.3253012048192771
 40
0.3373493975903614
 40
0.3373493975903614
 40
0.3373493975903614
 40
0.3373493975903614
 40
0.3493975903614458
 40
0.3493975903614458
 40
0.3493975903614458
 40
0.3493975903614458
 40
0.3614457831325301
 40
0.3614457831325301
 40
0.3614457831325301
 40
0.3614457831325301
 40
0.3734939759036144
 40
0.3734939759036144
 40
0.3734939759036144
 40
0.3734939759036144
 40
0.3855421686746988
 40
0.3855421686746988
 40
0.3855421686746988
 40
0.3855421686746988
 40
0.3975903614457831
 40
0.3975903614457831
 40
0.3975903614457831
 40
0.3975903614457831
 40
0.4096385542168675
 40
0.4096385542168675
 40
0.4096385542168675
 40
0.4096385542168675
 40
0.4216867469879518
 40
0.4216867469879518
 40
0.4216867469879518
 40
0.4216867469879518
 40
0.4337349397590362
 40
0.4337349397590362
 40
0.4337349397590362
 40
0.4337349397590362
 40
0.4457831325301205
 40
0.4457831325301205
 40
0.4457831325301205
 40
0.4457831325301205
 40
0.4578313253012048
 40
0.4578313253012048
 40
0.4578313253012048
 40
0.4578313253012048
 40
0.4698795180722892
 40
0.4698795180722892
 40
0.4698795180722892
 40
0.4698795180722892
 40
0.4819277108433735
 40
0.4819277108433735
 40
0.4819277108433735
 40
0.4819277108433735
 40
0.4939759036144578
 40
0.4939759036144578
 40
0.4939759036144578
 40
0.4939759036144578
 40
0.5060240963855421
 40
0.5060240963855421
 40
0.5060240963855421
 40
0.5060240963855421
 40
0.5180722891566265
 40
0.5180722891566265
 40
0.5180722891566265
 40
0.5180722891566265
 40
0.5301204819277109
 40
0.5301204819277109
 40
0.5301204819277109
 40
0.5301204819277109
 40
0.5421686746987951
 40
0.5421686746987951
 40
0.5421686746987951
 40
0.5421686746987951
 40
0.5542168674698795
 40
0.5542168674698795
 40
0.5542168674698795
 40
0.5542168674698795
 40
0.5662650602409639
 40
0.5662650602409639
 40
0.5662650602409639
 40
0.5662650602409639
 40
0.5783132530120482
 40
0.5783132530120482
 40
0.5783132530120482
 40
0.5783132530120482
 40
0.5903614457831325
 40
0.5903614457831325
 40
0.5903614457831325
 40
0.5903614457831325
 40
0.6024096385542169
 40
0.6024096385542169
 40
0.6024096385542169
 40
0.6024096385542169
 40
0.6144578313253012
 40
0.6144578313253012
 40
0.6144578313253012
 40
0.6144578313253012
 40
0.6265060240963856
 40
0.6265060240963856
 40
0.6265060240963856
 40
0.6265060240963856
 40
0.6385542168674698
 40
0.6385542168674698
 40
0.6385542168674698
 40
0.6385542168674698
 40
0.6506024096385542
 40
0.6506024096385542
 40
0.6506024096385542
 40
0.6506024096385542
 40
0.6626506024096386
 40
0.6626506024096386
 40
0.6626506024096386
 40
0.6626506024096386
 40
0.6746987951807228
 40
0.6746987951807228
 40
0.6746987951807228
 40
0.6746987951807228
 40
0.6867469879518072
 40
0.6867469879518072
 40
0.6867469879518072
 40
0.6867469879518072
 40
0.6987951807228916
 40
0.6987951807228916
 40
0.6987951807228916
 40
0.6987951807228916
 40
0.7108433734939759
 40
0.7108433734939759
 40
0.7108433734939759
 40
0.7108433734939759
 40
0.7228915662650602
 40
0.7228915662650602
 40
0.7228915662650602
 40
0.7228915662650602
 40
0.7349397590361446
 40
0.7349397590361446
 40
0.7349397590361446
 40
0.7349397590361446
 40
0.7469879518072289
 40
0.7469879518072289
 40
0.7469879518072289
 40
0.7469879518072289
 40
0.7590361445783133
 40
0.7590361445783133
 40
0.7590361445783133
 40
0.7590361445783133
 40
0.7710843373493976
 40
0.7710843373493976
 40
0.7710843373493976
 40
0.7710843373493976
 40
0.7831325301204819
 40
0.7831325301204819
 40
0.7831325301204819
 40
0.7831325301204819
 40
0.7951807228915663
 40
0.7951807228915663
 40
0.7951807228915663
 40
0.7951807228915663
 40
0.8072289156626506
 40
0.8072289156626506
 40
0.8072289156626506
 40
0.8072289156626506
 40
0.8192771084337349
 40
0.8192771084337349
 40
0.8192771084337349
 40
0.8192771084337349
 40
0.8313253012048193
 40
0.8313253012048193
 40
0.8313253012048193
 40
0.8313253012048193
 40
0.8433734939759037
 40
0.8433734939759037
 40
0.8433734939759037
 40
0.8433734939759037
 40
0.8554216867469879
 40
0.8554216867469879
 40
0.8554216867469879
 40
0.8554216867469879
 40
0.8674698795180723
 40
0.8674698795180723
 40
0.8674698795180723
 40
0.8674698795180723
 40
0.8795180722891566
 40
0.8795180722891566
 40
0.8795180722891566
 40
0.8795180722891566
 40
0.891566265060241
 40
0.891566265060241
 40
0.891566265060241
 40
0.891566265060241
 40
0.9036144578313253
 40
0.9036144578313253
 40
0.9036144578313253
 40
0.9036144578313253
 40
0.9156626506024096
 40
0.9156626506024096
 40
0.9156626506024096
 40
0.9156626506024096
 40
0.927710843373494
 40
0.927710843373494
 40
0.927710843373494
 40
0.927710843373494
 40
0.9397590361445783
 40
0.9397590361445783
 40
0.9397590361445783
 40
0.9397590361445783
 40
0.9518072289156626
 40
0.9518072289156626
 40
0.9518072289156626
 40
0.9518072289156626
 40
0.963855421686747
 40
0.963855421686747
 40
0.963855421686747
 40
0.963855421686747
 40
0.9759036144578314
 40
0.9759036144578314
 40
0.9759036144578314
 40
0.9759036144578314
 40
1.0
 40
1.0
 40
1.0
 40
1.0
 10
-19.3325
 20
67.5453
 30
0.0
 10
-21.0065
 20
70.2328
 30
0.0
 10
-22.7866
 20
73.4265
 30
0.0
 10
-24.65
 20
75.432
 30
0.0
 10
-24.65
 20
75.432
 30
0.0
 10
-30.6796
 20
80.3286
 30
0.0
 10
-37.3852
 20
83.0718
 30
0.0
 10
-44.4563
 20
83.0718
 30
0.0
 10
-44.4563
 20
83.0718
 30
0.0
 10
-44.9827
 20
83.0718
 30
0.0
 10
-45.4935
 20
83.0442
 30
0.0
 10
-45.9923
 20
82.9959
 30
0.0
 10
-45.9923
 20
82.9959
 30
0.0
 10
-45.9923
 20
82.9959
 30
0.0
 10
-45.9923
 20
83.0238
 30
0.0
 10
-45.9923
 20
83.0238
 30
0.0
 10
-45.9923
 20
83.0238
 30
0.0
 10
-45.9923
 20
83.0238
 30
0.0
 10
-48.9994
 20
83.0238
 30
0.0
 10
-48.9994
 20
83.0238
 30
0.0
 10
-48.9994
 20
83.0238
 30
0.0
 10
-77.1662
 20
73.7799
 30
0.0
 10
-99.085
 20
50.7637
 30
0.0
 10
-106.7953
 20
21.9361
 30
0.0
 10
-106.7953
 20
21.9361
 30
0.0
 10
-99.7302
 20
12.7914
 30
0.0
 10
-95.2503
 20
4.2471
 30
0.0
 10
-95.2503
 20
-0.6287
 30
0.0
 10
-95.2503
 20
-0.6287
 30
0.0
 10
-95.2503
 20
-6.1761
 30
0.0
 10
-99.7119
 20
-14.9098
 30
0.0
 10
-106.747
 20
-24.0203
 30
0.0
 10
-106.747
 20
-24.0203
 30
0.0
 10
-99.079
 20
-52.4524
 30
0.0
 10
-77.585
 20
-75.2098
 30
0.0
 10
-49.9159
 20
-84.6286
 30
0.0
 10
-49.9159
 20
-84.6286
 30
0.0
 10
-49.9159
 20
-84.6286
 30
0.0
 10
-45.9923
 20
-84.6286
 30
0.0
 10
-45.9923
 20
-84.6286
 30
0.0
 10
-45.9923
 20
-84.6286
 30
0.0
 10
-45.9923
 20
-84.6286
 30
0.0
 10
-45.9923
 20
-84.5495
 30
0.0
 10
-45.9923
 20
-84.5495
 30
0.0
 10
-45.9923
 20
-84.5495
 30
0.0
 10
-45.4935
 20
-84.5954
 30
0.0
 10
-44.9827
 20
-84.6212
 30
0.0
 10
-44.4563
 20
-84.6212
 30
0.0
 10
-44.4563
 20
-84.6212
 30
0.0
 10
-37.4011
 20
-84.6212
 30
0.0
 10
-30.7096
 20
-81.8896
 30
0.0
 10
-24.6902
 20
-77.0132
 30
0.0
 10
-24.6902
 20
-77.0132
 30
0.0
 10
-22.8123
 20
-74.9991
 30
0.0
 10
-21.0192
 20
-72.9121
 30
0.0
 10
-19.3325
 20
-70.2042
 30
0.0
 10
-19.3325
 20
-70.2042
 30
0.0
 10
-17.9874
 20
-68.5828
 30
0.0
 10
-16.6052
 20
-65.1379
 30
0.0
 10
-15.0597
 20
-65.1605
 30
0.0
 10
-15.0597
 20
-65.1605
 30
0.0
 10
-14.2137
 20
-65.1729
 30
0.0
 10
-12.398
 20
-68.0477
 30
0.0
 10
-11.4497
 20
-69.0146
 30
0.0
 10
-11.4497
 20
-69.0146
 30
0.0
 10
-6.9825
 20
-73.5686
 30
0.0
 10
-2.425
 20
-76.7849
 30
0.0
 10
3.7857
 20
-77.4347
 30
0.0
 10
3.7857
 20
-77.4347
 30
0.0
 10
3.7857
 20
-77.4347
 30
0.0
 10
7.4567
 20
-77.4347
 30
0.0
 10
7.4567
 20
-77.4347
 30
0.0
 10
7.4567
 20
-77.4347
 30
0.0
 10
29.5956
 20
-72.9661
 30
0.0
 10
43.9061
 20
-55.3974
 30
0.0
 10
50.3488
 20
-50.3174
 30
0.0
 10
50.3488
 20
-50.3174
 30
0.0
 10
54.967
 20
-46.6746
 30
0.0
 10
61.2479
 20
-43.2742
 30
0.0
 10
66.7463
 20
-47.1777
 30
0.0
 10
66.7463
 20
-47.1777
 30
0.0
 10
64.2211
 20
-40.1003
 30
0.0
 10
58.2973
 20
-40.9526
 30
0.0
 10
53.6515
 20
-42.4674
 30
0.0
 10
53.6515
 20
-42.4674
 30
0.0
 10
51.3585
 20
-43.2153
 30
0.0
 10
48.8587
 20
-45.7627
 30
0.0
 10
46.3099
 20
-47.1777
 30
0.0
 10
46.3099
 20
-47.1777
 30
0.0
 10
39.1767
 20
-51.1355
 30
0.0
 10
29.2086
 20
-54.2237
 30
0.0
 10
21.8352
 20
-48.0332
 30
0.0
 10
21.8352
 20
-48.0332
 30
0.0
 10
29.2118
 20
-47.0027
 30
0.0
 10
36.3312
 20
-37.2078
 30
0.0
 10
44.0458
 20
-42.7524
 30
0.0
 10
44.0458
 20
-42.7524
 30
0.0
 10
42.7338
 20
-41.106
 30
0.0
 10
40.9963
 20
-38.01
 30
0.0
 10
39.092
 20
-37.1366
 30
0.0
 10
39.092
 20
-37.1366
 30
0.0
 10
37.241
 20
-36.2864
 30
0.0
 10
34.9113
 20
-37.0971
 30
0.0
 10
33.1548
 20
-37.7818
 30
0.0
 10
33.1548
 20
-37.7818
 30
0.0
 10
32.7233
 20
-37.9508
 30
0.0
 10
31.0064
 20
-38.7152
 30
0.0
 10
30.7076
 20
-37.4721
 30
0.0
 10
30.7076
 20
-37.4721
 30
0.0
 10
30.583
 20
-36.9552
 30
0.0
 10
31.7726
 20
-35.6955
 30
0.0
 10
31.931
 20
-35.4743
 30
0.0
 10
31.931
 20
-35.4743
 30
0.0
 10
35.0386
 20
-31.1379
 30
0.0
 10
38.4486
 20
-26.9822
 30
0.0
 10
42.3937
 20
-24.4835
 30
0.0
 10
42.3937
 20
-24.4835
 30
0.0
 10
50.1188
 20
-19.5929
 30
0.0
 10
58.2038
 20
-27.1879
 30
0.0
 10
58.3636
 20
-27.7671
 30
0.0
 10
58.3636
 20
-27.7671
 30
0.0
 10
57.3677
 20
-24.4168
 30
0.0
 10
54.8732
 20
-23.6869
 30
0.0
 10
53.8357
 20
-20.6304
 30
0.0
 10
53.8357
 20
-20.6304
 30
0.0
 10
60.845
 20
-21.0668
 30
0.0
 10
65.9518
 20
-26.21
 30
0.0
 10
72.4362
 20
-28.9087
 30
0.0
 10
72.4362
 20
-28.9087
 30
0.0
 10
75.0736
 20
-30.0059
 30
0.0
 10
78.2285
 20
-32.1328
 30
0.0
 10
83.0217
 20
-30.7633
 30
0.0
 10
83.0217
 20
-30.7633
 30
0.0
 10
91.4196
 20
-28.3647
 30
0.0
 10
98.6579
 20
-15.4294
 30
0.0
 10
106.0895
 20
-8.7838
 30
0.0
 10
106.0895
 20
-8.7838
 30
0.0
 10
106.0895
 20
-8.7838
 30
0.0
 10
106.0895
 20
-8.3562
 30
0.0
 10
106.0895
 20
-8.3562
 30
0.0
 10
106.0895
 20
-8.3562
 30
0.0
 10
100.3882
 20
-12.875
 30
0.0
 10
93.4784
 20
-19.2652
 30
0.0
 10
86.6924
 20
-22.201
 30
0.0
 10
86.6924
 20
-22.201
 30
0.0
 10
83.656
 20
-23.5137
 30
0.0
 10
76.7514
 20
-24.8169
 30
0.0
 10
76.1686
 20
-18.2051
 30
0.0
 10
76.1686
 20
-18.2051
 30
0.0
 10
75.6204
 20
-11.9892
 30
0.0
 10
80.1589
 20
-10.5809
 30
0.0
 10
82.471
 20
-10.7819
 30
0.0
 10
82.471
 20
-10.7819
 30
0.0
 10
85.391
 20
-11.0374
 30
0.0
 10
87.3817
 20
-12.9088
 30
0.0
 10
90.1806
 20
-13.3516
 30
0.0
 10
90.1806
 20
-13.3516
 30
0.0
 10
86.6814
 20
-9.688
 30
0.0
 10
82.2428
 20
-5.0712
 30
0.0
 10
76.3521
 20
-6.7857
 30
0.0
 10
76.3521
 20
-6.7857
 30
0.0
 10
74.4217
 20
-7.3484
 30
0.0
 10
67.727
 20
-11.2215
 30
0.0
 10
65.4537
 20
-11.594
 30
0.0
 10
65.4537
 20
-11.594
 30
0.0
 10
58.3534
 20
-12.754
 30
0.0
 10
57.0096
 20
-5.7679
 30
0.0
 10
50.5312
 20
-4.9308
 30
0.0
 10
50.5312
 20
-4.9308
 30
0.0
 10
46.0058
 20
-4.3459
 30
0.0
 10
40.8457
 20
-4.5374
 30
0.0
 10
37.3761
 20
-7.3572
 30
0.0
 10
37.3761
 20
-7.3572
 30
0.0
 10
35.6835
 20
-8.733
 30
0.0
 10
34.1796
 20
-10.7319
 30
0.0
 10
32.4207
 20
-12.6379
 30
0.0
 10
32.4207
 20
-12.6379
 30
0.0
 10
30.9707
 20
-14.2092
 30
0.0
 10
25.8114
 20
-19.401
 30
0.0
 10
25.6286
 20
-12.2103
 30
0.0
 10
25.6286
 20
-12.2103
 30
0.0
 10
25.3235
 20
-0.1884
 30
0.0
 10
32.5995
 20
-2.4931
 30
0.0
 10
36.6247
 20
-1.1024
 30
0.0
 10
36.6247
 20
-1.1024
 30
0.0
 10
36.6247
 20
-1.1024
 30
0.0
 10
36.7041
 20
-1.1014
 30
0.0
 10
36.7041
 20
-1.1014
 30
0.0
 10
36.7041
 20
-1.1014
 30
0.0
 10
36.6917
 20
-1.0961
 30
0.0
 10
36.6776
 20
-1.0929
 30
0.0
 10
36.6656
 20
-1.0887
 30
0.0
 10
36.6656
 20
-1.0887
 30
0.0
 10
36.6776
 20
-1.0855
 30
0.0
 10
36.6917
 20
-1.0809
 30
0.0
 10
36.7041
 20
-1.0767
 30
0.0
 10
36.7041
 20
-1.0767
 30
0.0
 10
36.7041
 20
-1.0767
 30
0.0
 10
36.6247
 20
-1.0756
 30
0.0
 10
36.6247
 20
-1.0756
 30
0.0
 10
36.6247
 20
-1.0756
 30
0.0
 10
32.5995
 20
0.3143
 30
0.0
 10
25.3235
 20
-1.9904
 30
0.0
 10
25.6286
 20
10.0309
 30
0.0
 10
25.6286
 20
10.0309
 30
0.0
 10
25.8114
 20
17.2212
 30
0.0
 10
30.9707
 20
12.0301
 30
0.0
 10
32.4207
 20
10.4581
 30
0.0
 10
32.4207
 20
10.4581
 30
0.0
 10
34.1796
 20
8.5538
 30
0.0
 10
35.6835
 20
6.5546
 30
0.0
 10
37.3761
 20
5.1777
 30
0.0
 10
37.3761
 20
5.1777
 30
0.0
 10
40.8457
 20
2.3594
 30
0.0
 10
46.0058
 20
2.1668
 30
0.0
 10
50.5312
 20
2.752
 30
0.0
 10
50.5312
 20
2.752
 30
0.0
 10
57.0096
 20
3.5885
 30
0.0
 10
58.3534
 20
10.5756
 30
0.0
 10
65.4537
 20
9.4142
 30
0.0
 10
65.4537
 20
9.4142
 30
0.0
 10
67.7267
 20
9.0435
 30
0.0
 10
74.4217
 20
5.1696
 30
0.0
 10
76.3521
 20
4.6076
 30
0.0
 10
76.3521
 20
4.6076
 30
0.0
 10
82.2428
 20
2.8921
 30
0.0
 10
86.6814
 20
7.5092
 30
0.0
 10
90.1806
 20
11.1728
 30
0.0
 10
90.1806
 20
11.1728
 30
0.0
 10
87.3817
 20
10.729
 30
0.0
 10
85.391
 20
8.8582
 30
0.0
 10
82.4707
 20
8.6039
 30
0.0
 10
82.4707
 20
8.6039
 30
0.0
 10
80.1589
 20
8.401
 30
0.0
 10
75.6204
 20
9.8104
 30
0.0
 10
76.1683
 20
16.0249
 30
0.0
 10
76.1683
 20
16.0249
 30
0.0
 10
76.7511
 20
22.6381
 30
0.0
 10
83.656
 20
21.3353
 30
0.0
 10
86.6924
 20
20.0215
 30
0.0
 10
86.6924
 20
20.0215
 30
0.0
 10
93.4784
 20
17.0868
 30
0.0
 10
100.3882
 20
10.6962
 30
0.0
 10
106.0895
 20
6.1768
 30
0.0
 10
106.0895
 20
6.1768
 30
0.0
 10
106.0895
 20
6.1768
 30
0.0
 10
106.0895
 20
6.6061
 30
0.0
 10
106.0895
 20
6.6061
 30
0.0
 10
106.0895
 20
6.6061
 30
0.0
 10
98.6579
 20
13.2514
 30
0.0
 10
91.4196
 20
26.1853
 30
0.0
 10
83.0217
 20
28.5849
 30
0.0
 10
83.0217
 20
28.5849
 30
0.0
 10
78.2285
 20
29.954
 30
0.0
 10
75.0733
 20
27.8268
 30
0.0
 10
72.4362
 20
26.7293
 30
0.0
 10
72.4362
 20
26.7293
 30
0.0
 10
65.9515
 20
24.0309
 30
0.0
 10
60.845
 20
18.8881
 30
0.0
 10
53.8357
 20
18.4517
 30
0.0
 10
53.8357
 20
18.4517
 30
0.0
 10
54.8732
 20
21.5078
 30
0.0
 10
57.3677
 20
22.2381
 30
0.0
 10
58.3632
 20
25.5884
 30
0.0
 10
58.3632
 20
25.5884
 30
0.0
 10
58.2038
 20
25.0084
 30
0.0
 10
50.1188
 20
17.4142
 30
0.0
 10
42.3937
 20
22.3054
 30
0.0
 10
42.3937
 20
22.3054
 30
0.0
 10
38.4486
 20
24.8045
 30
0.0
 10
35.0386
 20
28.9578
 30
0.0
 10
31.931
 20
33.2959
 30
0.0
 10
31.931
 20
33.2959
 30
0.0
 10
31.7726
 20
33.5167
 30
0.0
 10
30.583
 20
34.7772
 30
0.0
 10
30.7076
 20
35.2929
 30
0.0
 10
30.7076
 20
35.2929
 30
0.0
 10
31.0064
 20
36.5368
 30
0.0
 10
32.7233
 20
35.7717
 30
0.0
 10
33.1548
 20
35.6027
 30
0.0
 10
33.1548
 20
35.6027
 30
0.0
 10
34.9113
 20
34.9172
 30
0.0
 10
37.241
 20
34.1069
 30
0.0
 10
39.092
 20
34.9575
 30
0.0
 10
39.092
 20
34.9575
 30
0.0
 10
40.9963
 20
35.8309
 30
0.0
 10
42.7338
 20
38.9266
 30
0.0
 10
44.0458
 20
40.5737
 30
0.0
 10
44.0458
 20
40.5737
 30
0.0
 10
36.3312
 20
35.0298
 30
0.0
 10
29.2118
 20
44.8246
 30
0.0
 10
21.8352
 20
45.8541
 30
0.0
 10
21.8352
 20
45.8541
 30
0.0
 10
29.2086
 20
52.0453
 30
0.0
 10
39.1767
 20
48.956
 30
0.0
 10
46.3095
 20
44.9986
 30
0.0
 10
46.3095
 20
44.9986
 30
0.0
 10
48.8587
 20
43.5829
 30
0.0
 10
51.3585
 20
41.0365
 30
0.0
 10
53.6515
 20
40.2886
 30
0.0
 10
53.6515
 20
40.2886
 30
0.0
 10
58.2973
 20
38.7731
 30
0.0
 10
64.2211
 20
37.9211
 30
0.0
 10
66.7459
 20
44.9986
 30
0.0
 10
66.7459
 20
44.9986
 30
0.0
 10
61.2479
 20
41.0954
 30
0.0
 10
54.967
 20
44.4959
 30
0.0
 10
50.3488
 20
48.1383
 30
0.0
 10
50.3488
 20
48.1383
 30
0.0
 10
43.9057
 20
53.2186
 30
0.0
 10
29.5956
 20
70.787
 30
0.0
 10
7.4567
 20
75.2556
 30
0.0
 10
7.4567
 20
75.2556
 30
0.0
 10
7.4567
 20
75.2556
 30
0.0
 10
3.7857
 20
75.2556
 30
0.0
 10
3.7857
 20
75.2556
 30
0.0
 10
3.7857
 20
75.2556
 30
0.0
 10
-2.425
 20
74.6062
 30
0.0
 10
-6.9825
 20
71.3888
 30
0.0
 10
-11.4497
 20
66.8348
 30
0.0
 10
-11.4497
 20
66.8348
 30
0.0
 10
-12.398
 20
65.8693
 30
0.0
 10
-14.2137
 20
62.9938
 30
0.0
 10
-15.0597
 20
62.9811
 30
0.0
 10
-15.0597
 20
62.9811
 30
0.0
 10
-16.6052
 20
62.9592
 30
0.0
 10
-17.8921
 20
65.8961
 30
0.0
 10
-19.3325
 20
67.5453
 30
0.0
  0
ENDSEC
  0
SECTION
  2
OBJECTS
  0
DICTIONARY
  5
C
330
0
100
AcDbDictionary
281
     1
  3
ACAD_GROUP
350
D
  3
ACAD_LAYOUT
350
1A
  3
ACAD_MATERIAL
350
3B
  3
ACAD_MLEADERSTYLE
350
73
  3
ACAD_MLINESTYLE
350
17
  3
ACAD_PLOTSETTINGS
350
19
  3
ACAD_PLOTSTYLENAME
350
E
  3
ACAD_TABLESTYLE
350
72
  3
ACAD_VISUALSTYLE
350
2A
  0
DICTIONARY
  5
D
102
{ACAD_REACTORS
330
C
102
}
330
C
100
AcDbDictionary
281
     1
  0
DICTIONARY
  5
1A
102
{ACAD_REACTORS
330
C
102
}
330
C
100
AcDbDictionary
281
     1
  3
Layout1
350
1E
  3
Layout2
350
26
  3
Model
350
22
  0
DICTIONARY
  5
3B
102
{ACAD_REACTORS
330
C
102
}
330
C
100
AcDbDictionary
281
     1
  3
ByBlock
350
3D
  3
ByLayer
350
3C
  3
Global
350
3E
  0
DICTIONARY
  5
73
102
{ACAD_REACTORS
330
C
102
}
330
C
100
AcDbDictionary
281
     1
  0
DICTIONARY
  5
17
102
{ACAD_REACTORS
330
C
102
}
330
C
100
AcDbDictionary
281
     1
  3
Standard
350
18
  0
DICTIONARY
  5
19
102
{ACAD_REACTORS
330
C
102
}
330
C
100
AcDbDictionary
281
     1
  0
ACDBDICTIONARYWDFLT
  5
E
102
{ACAD_REACTORS
330
C
102
}
330
C
100
AcDbDictionary
281
     1
  3
Normal
350
F
100
AcDbDictionaryWithDefault
340
F
  0
DICTIONARY
  5
72
102
{ACAD_REACTORS
330
C
102
}
330
C
100
AcDbDictionary
281
     1
  0
DICTIONARY
  5
2A
102
{ACAD_REACTORS
330
C
102
}
330
C
100
AcDbDictionary
281
     1
  3
2dWireframe
350
2F
  3
3D Hidden
350
31
  3
3dWireframe
350
30
  3
Basic
350
32
  3
Brighten
350
36
  3
ColorChange
350
3A
  3
Conceptual
350
34
  3
Dim
350
35
  3
Facepattern
350
39
  3
Flat
350
2B
  3
FlatWithEdges
350
2C
  3
Gouraud
350
2D
  3
GouraudWithEdges
350
2E
  3
Linepattern
350
38
  3
Realistic
350
33
  3
Thicken
350
37
  0
LAYOUT
  5
1E
102
{ACAD_REACTORS
330
1A
102
}
330
1A
100
AcDbPlotSettings
  1

  2
none_device
  4

  6

 40
0.0
 41
0.0
 42
0.0
 43
0.0
 44
0.0
 45
0.0
 46
0.0
 47
0.0
 48
0.0
 49
0.0
140
0.0
141
0.0
142
1.0
143
1.0
 70
   688
 72
     0
 73
     0
 74
     5
  7

 75
    16
 76
     0
 77
     2
 78
   300
147
1.0
148
0.0
149
0.0
100
AcDbLayout
  1
Layout1
 70
     1
 71
     1
 10
0.0
 20
0.0
 11
12.0
 21
9.0
 12
0.0
 22
0.0
 32
0.0
 14
1.000000000000000E+20
 24
1.000000000000000E+20
 34
1.000000000000000E+20
 15
-1.000000000000000E+20
 25
-1.000000000000000E+20
 35
-1.000000000000000E+20
146
0.0
 13
0.0
 23
0.0
 33
0.0
 16
1.0
 26
0.0
 36
0.0
 17
0.0
 27
1.0
 37
0.0
 76
     0
330
1B
  0
LAYOUT
  5
26
102
{ACAD_REACTORS
330
1A
102
}
330
1A
100
AcDbPlotSettings
  1

  2
none_device
  4

  6

 40
0.0
 41
0.0
 42
0.0
 43
0.0
 44
0.0
 45
0.0
 46
0.0
 47
0.0
 48
0.0
 49
0.0
140
0.0
141
0.0
142
1.0
143
1.0
 70
   688
 72
     0
 73
     0
 74
     5
  7

 75
    16
 76
     0
 77
     2
 78
   300
147
1.0
148
0.0
149
0.0
100
AcDbLayout
  1
Layout2
 70
     1
 71
     2
 10
0.0
 20
0.0
 11
0.0
 21
0.0
 12
0.0
 22
0.0
 32
0.0
 14
0.0
 24
0.0
 34
0.0
 15
0.0
 25
0.0
 35
0.0
146
0.0
 13
0.0
 23
0.0
 33
0.0
 16
1.0
 26
0.0
 36
0.0
 17
0.0
 27
1.0
 37
0.0
 76
     0
330
23
  0
LAYOUT
  5
22
102
{ACAD_REACTORS
330
1A
102
}
330
1A
100
AcDbPlotSettings
  1

  2
none_device
  4

  6

 40
0.0
 41
0.0
 42
0.0
 43
0.0
 44
0.0
 45
0.0
 46
0.0
 47
0.0
 48
0.0
 49
0.0
140
0.0
141
0.0
142
1.0
143
1.0
 70
  1712
 72
     0
 73
     0
 74
     0
  7

 75
     0
 76
     0
 77
     2
 78
   300
147
1.0
148
0.0
149
0.0
100
AcDbLayout
  1
Model
 70
     1
 71
     0
 10
0.0
 20
0.0
 11
12.0
 21
9.0
 12
0.0
 22
0.0
 32
0.0
 14
-106.7953
 24
-84.6286
 34
0.0
 15
106.0895
 25
83.0718
 35
0.0
146
0.0
 13
0.0
 23
0.0
 33
0.0
 16
1.0
 26
0.0
 36
0.0
 17
0.0
 27
1.0
 37
0.0
 76
     0
330
1F
331
29
  0
MATERIAL
  5
3D
102
{ACAD_REACTORS
330
3B
102
}
102
{ACAD_XDICTIONARY
360
6E
102
}
330
3B
100
AcDbMaterial
  1
ByBlock
  0
MATERIAL
  5
3C
102
{ACAD_REACTORS
330
3B
102
}
102
{ACAD_XDICTIONARY
360
6C
102
}
330
3B
100
AcDbMaterial
  1
ByLayer
  0
MATERIAL
  5
3E
102
{ACAD_REACTORS
330
3B
102
}
102
{ACAD_XDICTIONARY
360
70
102
}
330
3B
100
AcDbMaterial
  1
Global
  0
MLINESTYLE
  5
18
102
{ACAD_REACTORS
330
17
102
}
330
17
100
AcDbMlineStyle
  2
Standard
 70
     0
  3

 62
   256
 51
90.0
 52
90.0
 71
     2
 49
0.5
 62
   256
  6
BYLAYER
 49
-0.5
 62
   256
  6
BYLAYER
  0
ACDBPLACEHOLDER
  5
F
102
{ACAD_REACTORS
330
E
102
}
330
E
  0
VISUALSTYLE
  5
2F
102
{ACAD_REACTORS
330
2A
102
}
102
{ACAD_XDICTIONARY
360
54
102
}
330
2A
100
AcDbVisualStyle
  2
2dWireframe
 70
     4
 71
     0
 72
     2
 73
     0
 90
        0
 40
-0.6
 41
-30.0
 62
     5
 63
     7
421
 16777215
 74
     1
 91
        4
 64
     7
 65
   257
 75
     1
175
     1
 42
1.0
 92
        0
 66
   257
 43
1.0
 76
     1
 77
     6
 78
     2
 67
     7
 79
     5
170
     0
171
     0
290
     0
174
     0
 93
        1
 44
0.0
173
     0
291
     0
 45
0.0
1001
ACAD
1000
AcDbSavedByObjectVersion
1070
     0
  0
VISUALSTYLE
  5
31
102
{ACAD_REACTORS
330
2A
102
}
102
{ACAD_XDICTIONARY
360
58
102
}
330
2A
100
AcDbVisualStyle
  2
3D Hidden
 70
     6
 71
     1
 72
     2
 73
     2
 90
        0
 40
-0.6
 41
-30.0
 62
     5
 63
     7
421
 16777215
 74
     2
 91
        2
 64
     7
 65
   257
 75
     2
175
     1
 42
40.0
 92
        0
 66
   257
 43
1.0
 76
     1
 77
     6
 78
     2
 67
     7
 79
     3
170
     0
171
     0
290
     0
174
     0
 93
        1
 44
0.0
173
     0
291
     0
 45
0.0
1001
ACAD
1000
AcDbSavedByObjectVersion
1070
     0
  0
VISUALSTYLE
  5
30
102
{ACAD_REACTORS
330
2A
102
}
102
{ACAD_XDICTIONARY
360
56
102
}
330
2A
100
AcDbVisualStyle
  2
3dWireframe
 70
     5
 71
     0
 72
     2
 73
     0
 90
        0
 40
-0.6
 41
-30.0
 62
     5
 63
     7
421
 16777215
 74
     1
 91
        4
 64
     7
 65
   257
 75
     1
175
     1
 42
1.0
 92
        0
 66
   257
 43
1.0
 76
     1
 77
     6
 78
     2
 67
     7
 79
     5
170
     0
171
     0
290
     0
174
     0
 93
        1
 44
0.0
173
     0
291
     0
 45
0.0
1001
ACAD
1000
AcDbSavedByObjectVersion
1070
     0
  0
VISUALSTYLE
  5
32
102
{ACAD_REACTORS
330
2A
102
}
102
{ACAD_XDICTIONARY
360
5A
102
}
330
2A
100
AcDbVisualStyle
  2
Basic
 70
     7
 71
     1
 72
     0
 73
     1
 90
        0
 40
-0.6
 41
-30.0
 62
     5
 63
     7
421
 16777215
 74
     0
 91
        4
 64
     7
 65
   257
 75
     1
175
     1
 42
1.0
 92
        8
 66
     7
 43
1.0
 76
     1
 77
     6
 78
     2
 67
     7
 79
     5
170
     0
171
     0
290
     0
174
     0
 93
        1
 44
0.0
173
     0
291
     1
 45
0.0
1001
ACAD
1000
AcDbSavedByObjectVersion
1070
     0
  0
VISUALSTYLE
  5
36
102
{ACAD_REACTORS
330
2A
102
}
102
{ACAD_XDICTIONARY
360
62
102
}
330
2A
100
AcDbVisualStyle
  2
Brighten
 70
    12
 71
     2
 72
     2
 73
     0
 90
        0
 40
-0.6
 41
-30.0
 62
     5
 63
     7
421
 16777215
 74
     1
 91
        4
 64
     7
 65
   257
 75
     1
175
     1
 42
1.0
 92
        8
 66
     7
 43
1.0
 76
     1
 77
     6
 78
     2
 67
     7
 79
     5
170
     0
171
     0
290
     0
174
     0
 93
        1
 44
50.0
173
     0
291
     1
 45
0.0
1001
ACAD
1000
AcDbSavedByObjectVersion
1070
     0
  0
VISUALSTYLE
  5
3A
102
{ACAD_REACTORS
330
2A
102
}
102
{ACAD_XDICTIONARY
360
6A
102
}
330
2A
100
AcDbVisualStyle
  2
ColorChange
 70
    16
 71
     2
 72
     2
 73
     3
 90
        0
 40
-0.6
 41
-30.0
 62
     5
 63
     8
421
  8421504
 74
     1
 91
        4
 64
     7
 65
   257
 75
     1
175
     1
 42
1.0
 92
        8
 66
     8
424
  8421504
 43
1.0
 76
     1
 77
     6
 78
     2
 67
     7
 79
     5
170
     0
171
     0
290
     0
174
     0
 93
        1
 44
0.0
173
     0
291
     1
 45
0.0
1001
ACAD
1000
AcDbSavedByObjectVersion
1070
     0
  0
VISUALSTYLE
  5
34
102
{ACAD_REACTORS
330
2A
102
}
102
{ACAD_XDICTIONARY
360
5E
102
}
330
2A
100
AcDbVisualStyle
  2
Conceptual
 70
     9
 71
     3
 72
     2
 73
     0
 90
        0
 40
-0.6
 41
-30.0
 62
     5
 63
     7
421
 16777215
 74
     2
 91
        2
 64
     7
 65
   257
 75
     1
175
     1
 42
40.0
 92
        8
 66
     7
 43
1.0
 76
     1
 77
     6
 78
     2
 67
     7
 79
     3
170
     0
171
     0
290
     0
174
     0
 93
        1
 44
0.0
173
     0
291
     0
 45
0.0
1001
ACAD
1000
AcDbSavedByObjectVersion
1070
     0
  0
VISUALSTYLE
  5
35
102
{ACAD_REACTORS
330
2A
102
}
102
{ACAD_XDICTIONARY
360
60
102
}
330
2A
100
AcDbVisualStyle
  2
Dim
 70
    11
 71
     2
 72
     2
 73
     0
 90
        0
 40
-0.6
 41
-30.0
 62
     5
 63
     7
421
 16777215
 74
     1
 91
        4
 64
     7
 65
   257
 75
     1
175
     1
 42
1.0
 92
        8
 66
     7
 43
1.0
 76
     1
 77
     6
 78
     2
 67
     7
 79
     5
170
     0
171
     0
290
     0
174
     0
 93
        1
 44
-50.0
173
     0
291
     1
 45
0.0
1001
ACAD
1000
AcDbSavedByObjectVersion
1070
     0
  0
VISUALSTYLE
  5
39
102
{ACAD_REACTORS
330
2A
102
}
102
{ACAD_XDICTIONARY
360
68
102
}
330
2A
100
AcDbVisualStyle
  2
Facepattern
 70
    15
 71
     2
 72
     2
 73
     0
 90
        0
 40
-0.6
 41
-30.0
 62
     5
 63
     7
421
 16777215
 74
     1
 91
        4
 64
     7
 65
   257
 75
     1
175
     1
 42
1.0
 92
        8
 66
     7
 43
1.0
 76
     1
 77
     6
 78
     2
 67
     7
 79
     5
170
     0
171
     0
290
     0
174
     0
 93
        1
 44
0.0
173
     0
291
     1
 45
0.0
1001
ACAD
1000
AcDbSavedByObjectVersion
1070
     0
  0
VISUALSTYLE
  5
2B
102
{ACAD_REACTORS
330
2A
102
}
102
{ACAD_XDICTIONARY
360
4C
102
}
330
2A
100
AcDbVisualStyle
  2
Flat
 70
     0
 71
     2
 72
     1
 73
     1
 90
        2
 40
-0.6
 41
30.0
 62
     5
 63
     7
421
 16777215
 74
     0
 91
        4
 64
     7
 65
   257
 75
     1
175
     1
 42
1.0
 92
        8
 66
     7
 43
1.0
 76
     1
 77
     6
 78
     2
 67
     7
 79
     5
170
     0
171
     0
290
     0
174
     0
 93
       13
 44
0.0
173
     0
291
     1
 45
0.0
1001
ACAD
1000
AcDbSavedByObjectVersion
1070
     0
  0
VISUALSTYLE
  5
2C
102
{ACAD_REACTORS
330
2A
102
}
102
{ACAD_XDICTIONARY
360
4E
102
}
330
2A
100
AcDbVisualStyle
  2
FlatWithEdges
 70
     1
 71
     2
 72
     1
 73
     1
 90
        2
 40
-0.6
 41
30.0
 62
     5
 63
     7
421
 16777215
 74
     1
 91
        4
 64
     7
 65
   257
 75
     1
175
     1
 42
1.0
 92
        0
 66
   257
 43
1.0
 76
     1
 77
     6
 78
     2
 67
     7
 79
     5
170
     0
171
     0
290
     0
174
     0
 93
       13
 44
0.0
173
     0
291
     1
 45
0.0
1001
ACAD
1000
AcDbSavedByObjectVersion
1070
     0
  0
VISUALSTYLE
  5
2D
102
{ACAD_REACTORS
330
2A
102
}
102
{ACAD_XDICTIONARY
360
50
102
}
330
2A
100
AcDbVisualStyle
  2
Gouraud
 70
     2
 71
     2
 72
     2
 73
     1
 90
        2
 40
-0.6
 41
30.0
 62
     5
 63
     7
421
 16777215
 74
     0
 91
        4
 64
     7
 65
   257
 75
     1
175
     1
 42
1.0
 92
        0
 66
     7
 43
1.0
 76
     1
 77
     6
 78
     2
 67
     7
 79
     5
170
     0
171
     0
290
     0
174
     0
 93
       13
 44
0.0
173
     0
291
     1
 45
0.0
1001
ACAD
1000
AcDbSavedByObjectVersion
1070
     0
  0
VISUALSTYLE
  5
2E
102
{ACAD_REACTORS
330
2A
102
}
102
{ACAD_XDICTIONARY
360
52
102
}
330
2A
100
AcDbVisualStyle
  2
GouraudWithEdges
 70
     3
 71
     2
 72
     2
 73
     1
 90
        2
 40
-0.6
 41
30.0
 62
     5
 63
     7
421
 16777215
 74
     1
 91
        4
 64
     7
 65
   257
 75
     1
175
     1
 42
1.0
 92
        0
 66
   257
 43
1.0
 76
     1
 77
     6
 78
     2
 67
     7
 79
     5
170
     0
171
     0
290
     0
174
     0
 93
       13
 44
0.0
173
     0
291
     1
 45
0.0
1001
ACAD
1000
AcDbSavedByObjectVersion
1070
     0
  0
VISUALSTYLE
  5
38
102
{ACAD_REACTORS
330
2A
102
}
102
{ACAD_XDICTIONARY
360
66
102
}
330
2A
100
AcDbVisualStyle
  2
Linepattern
 70
    14
 71
     2
 72
     2
 73
     0
 90
        0
 40
-0.6
 41
-30.0
 62
     5
 63
     7
421
 16777215
 74
     1
 91
        4
 64
     7
 65
   257
 75
     7
175
     7
 42
1.0
 92
        8
 66
     7
 43
1.0
 76
     1
 77
     6
 78
     2
 67
     7
 79
     5
170
     0
171
     0
290
     0
174
     0
 93
        1
 44
0.0
173
     0
291
     1
 45
0.0
1001
ACAD
1000
AcDbSavedByObjectVersion
1070
     0
  0
VISUALSTYLE
  5
33
102
{ACAD_REACTORS
330
2A
102
}
102
{ACAD_XDICTIONARY
360
5C
102
}
330
2A
100
AcDbVisualStyle
  2
Realistic
 70
     8
 71
     2
 72
     2
 73
     0
 90
        0
 40
-0.6
 41
-30.0
 62
     5
 63
     7
421
 16777215
 74
     1
 91
        0
 64
     7
 65
   257
 75
     1
175
     1
 42
1.0
 92
        8
 66
     8
424
  7895160
 43
1.0
 76
     1
 77
     6
 78
     2
 67
     7
 79
     5
170
     0
171
     0
290
     0
174
     0
 93
       13
 44
0.0
173
     0
291
     0
 45
0.0
1001
ACAD
1000
AcDbSavedByObjectVersion
1070
     0
  0
VISUALSTYLE
  5
37
102
{ACAD_REACTORS
330
2A
102
}
102
{ACAD_XDICTIONARY
360
64
102
}
330
2A
100
AcDbVisualStyle
  2
Thicken
 70
    13
 71
     2
 72
     2
 73
     0
 90
        0
 40
-0.6
 41
-30.0
 62
     5
 63
     7
421
 16777215
 74
     1
 91
        4
 64
     7
 65
   257
 75
     1
175
     1
 42
1.0
 92
       12
 66
     7
 43
1.0
 76
     1
 77
     6
 78
     2
 67
     7
 79
     5
170
     0
171
     0
290
     0
174
     0
 93
        1
 44
0.0
173
     0
291
     1
 45
0.0
1001
ACAD
1000
AcDbSavedByObjectVersion
1070
     0
  0
DICTIONARY
  5
6E
330
3D
100
AcDbDictionary
280
     1
281
     1
  3
ACAD_XREC_ROUNDTRIP
360
6F
  0
DICTIONARY
  5
6C
330
3C
100
AcDbDictionary
280
     1
281
     1
  3
ACAD_XREC_ROUNDTRIP
360
6D
  0
DICTIONARY
  5
70
330
3E
100
AcDbDictionary
280
     1
281
     1
  3
ACAD_XREC_ROUNDTRIP
360
71
  0
DICTIONARY
  5
54
330
2F
100
AcDbDictionary
280
     1
281
     1
  3
ACAD_XREC_ROUNDTRIP
360
55
  0
DICTIONARY
  5
58
330
31
100
AcDbDictionary
280
     1
281
     1
  3
ACAD_XREC_ROUNDTRIP
360
59
  0
DICTIONARY
  5
56
330
30
100
AcDbDictionary
280
     1
281
     1
  3
ACAD_XREC_ROUNDTRIP
360
57
  0
DICTIONARY
  5
5A
330
32
100
AcDbDictionary
280
     1
281
     1
  3
ACAD_XREC_ROUNDTRIP
360
5B
  0
DICTIONARY
  5
62
330
36
100
AcDbDictionary
280
     1
281
     1
  3
ACAD_XREC_ROUNDTRIP
360
63
  0
DICTIONARY
  5
6A
330
3A
100
AcDbDictionary
280
     1
281
     1
  3
ACAD_XREC_ROUNDTRIP
360
6B
  0
DICTIONARY
  5
5E
330
34
100
AcDbDictionary
280
     1
281
     1
  3
ACAD_XREC_ROUNDTRIP
360
5F
  0
DICTIONARY
  5
60
330
35
100
AcDbDictionary
280
     1
281
     1
  3
ACAD_XREC_ROUNDTRIP
360
61
  0
DICTIONARY
  5
68
330
39
100
AcDbDictionary
280
     1
281
     1
  3
ACAD_XREC_ROUNDTRIP
360
69
  0
DICTIONARY
  5
4C
330
2B
100
AcDbDictionary
280
     1
281
     1
  3
ACAD_XREC_ROUNDTRIP
360
4D
  0
DICTIONARY
  5
4E
330
2C
100
AcDbDictionary
280
     1
281
     1
  3
ACAD_XREC_ROUNDTRIP
360
4F
  0
DICTIONARY
  5
50
330
2D
100
AcDbDictionary
280
     1
281
     1
  3
ACAD_XREC_ROUNDTRIP
360
51
  0
DICTIONARY
  5
52
330
2E
100
AcDbDictionary
280
     1
281
     1
  3
ACAD_XREC_ROUNDTRIP
360
53
  0
DICTIONARY
  5
66
330
38
100
AcDbDictionary
280
     1
281
     1
  3
ACAD_XREC_ROUNDTRIP
360
67
  0
DICTIONARY
  5
5C
330
33
100
AcDbDictionary
280
     1
281
     1
  3
ACAD_XREC_ROUNDTRIP
360
5D
  0
DICTIONARY
  5
64
330
37
100
AcDbDictionary
280
     1
281
     1
  3
ACAD_XREC_ROUNDTRIP
360
65
  0
XRECORD
  5
6F
102
{ACAD_REACTORS
330
6E
102
}
330
6E
100
AcDbXrecord
280
     1
102
MATERIAL
148
0.0
149
0.0
149
0.0
 93
        0
 94
      127
282
     0
 72
     1
 77
     1
171
     1
175
     1
179
     1
273
     0
  0
XRECORD
  5
6D
102
{ACAD_REACTORS
330
6C
102
}
330
6C
100
AcDbXrecord
280
     1
102
MATERIAL
148
0.0
149
0.0
149
0.0
 93
        0
 94
      127
282
     0
 72
     1
 77
     1
171
     1
175
     1
179
     1
273
     0
  0
XRECORD
  5
71
102
{ACAD_REACTORS
330
70
102
}
330
70
100
AcDbXrecord
280
     1
102
MATERIAL
148
0.0
149
0.0
149
0.0
 93
        0
 94
      127
282
     0
 72
     1
 77
     1
171
     1
175
     1
179
     1
273
     0
  0
XRECORD
  5
55
102
{ACAD_REACTORS
330
54
102
}
330
54
100
AcDbXrecord
280
     1
102
RTVSPropertyOp0
 70
     1
102
RTVSPropertyOp1
 70
     1
102
RTVSPropertyOp2
 70
     1
102
RTVSPropertyOp3
 70
     1
102
RTVSPropertyOp4
 70
     1
102
RTVSPropertyOp5
 70
     1
102
RTVSPropertyOp6
 70
     1
102
RTVSPropertyOp7
 70
     1
102
RTVSPropertyOp8
 70
     1
102
RTVSPropertyOp9
 70
     1
102
RTVSPropertyOp10
 70
     1
102
RTVSPropertyOp11
 70
     1
102
RTVSPropertyOp12
 70
     1
102
RTVSPropertyOp13
 70
     1
102
RTVSPropertyOp14
 70
     1
102
RTVSPropertyOp15
 70
     1
102
RTVSPropertyOp16
 70
     1
102
RTVSPropertyOp17
 70
     1
102
RTVSPropertyOp18
 70
     1
102
RTVSPropertyOp19
 70
     1
102
RTVSPropertyOp20
 70
     1
102
RTVSPropertyOp21
 70
     1
102
RTVSPropertyOp22
 70
     1
102
RTVSPropertyOp23
 70
     1
102
RTVSPropertyOp24
 70
     1
102
RTVSPropertyOp25
 70
     1
102
RTVSPropertyOp26
 70
     1
102
RTVSPropertyOp27
 70
     1
  0
XRECORD
  5
59
102
{ACAD_REACTORS
330
58
102
}
330
58
100
AcDbXrecord
280
     1
102
RTVSPropertyOp0
 70
     1
102
RTVSPropertyOp1
 70
     1
102
RTVSPropertyOp2
 70
     1
102
RTVSPropertyOp3
 70
     1
102
RTVSPropertyOp4
 70
     1
102
RTVSPropertyOp5
 70
     1
102
RTVSPropertyOp6
 70
     1
102
RTVSPropertyOp7
 70
     1
102
RTVSPropertyOp8
 70
     1
102
RTVSPropertyOp9
 70
     1
102
RTVSPropertyOp10
 70
     1
102
RTVSPropertyOp11
 70
     1
102
RTVSPropertyOp12
 70
     1
102
RTVSPropertyOp13
 70
     1
102
RTVSPropertyOp14
 70
     1
102
RTVSPropertyOp15
 70
     1
102
RTVSPropertyOp16
 70
     1
102
RTVSPropertyOp17
 70
     1
102
RTVSPropertyOp18
 70
     1
102
RTVSPropertyOp19
 70
     1
102
RTVSPropertyOp20
 70
     1
102
RTVSPropertyOp21
 70
     1
102
RTVSPropertyOp22
 70
     1
102
RTVSPropertyOp23
 70
     1
102
RTVSPropertyOp24
 70
     1
102
RTVSPropertyOp25
 70
     1
102
RTVSPropertyOp26
 70
     1
102
RTVSPropertyOp27
 70
     1
  0
XRECORD
  5
57
102
{ACAD_REACTORS
330
56
102
}
330
56
100
AcDbXrecord
280
     1
102
RTVSPropertyOp0
 70
     1
102
RTVSPropertyOp1
 70
     1
102
RTVSPropertyOp2
 70
     1
102
RTVSPropertyOp3
 70
     1
102
RTVSPropertyOp4
 70
     1
102
RTVSPropertyOp5
 70
     1
102
RTVSPropertyOp6
 70
     1
102
RTVSPropertyOp7
 70
     1
102
RTVSPropertyOp8
 70
     1
102
RTVSPropertyOp9
 70
     1
102
RTVSPropertyOp10
 70
     1
102
RTVSPropertyOp11
 70
     1
102
RTVSPropertyOp12
 70
     1
102
RTVSPropertyOp13
 70
     1
102
RTVSPropertyOp14
 70
     1
102
RTVSPropertyOp15
 70
     1
102
RTVSPropertyOp16
 70
     1
102
RTVSPropertyOp17
 70
     1
102
RTVSPropertyOp18
 70
     1
102
RTVSPropertyOp19
 70
     1
102
RTVSPropertyOp20
 70
     1
102
RTVSPropertyOp21
 70
     1
102
RTVSPropertyOp22
 70
     1
102
RTVSPropertyOp23
 70
     1
102
RTVSPropertyOp24
 70
     1
102
RTVSPropertyOp25
 70
     1
102
RTVSPropertyOp26
 70
     1
102
RTVSPropertyOp27
 70
     1
  0
XRECORD
  5
5B
102
{ACAD_REACTORS
330
5A
102
}
330
5A
100
AcDbXrecord
280
     1
102
RTVSPropertyOp0
 70
     1
102
RTVSPropertyOp1
 70
     1
102
RTVSPropertyOp2
 70
     1
102
RTVSPropertyOp3
 70
     1
102
RTVSPropertyOp4
 70
     1
102
RTVSPropertyOp5
 70
     1
102
RTVSPropertyOp6
 70
     1
102
RTVSPropertyOp7
 70
     1
102
RTVSPropertyOp8
 70
     1
102
RTVSPropertyOp9
 70
     1
102
RTVSPropertyOp10
 70
     1
102
RTVSPropertyOp11
 70
     1
102
RTVSPropertyOp12
 70
     1
102
RTVSPropertyOp13
 70
     1
102
RTVSPropertyOp14
 70
     1
102
RTVSPropertyOp15
 70
     1
102
RTVSPropertyOp16
 70
     1
102
RTVSPropertyOp17
 70
     1
102
RTVSPropertyOp18
 70
     1
102
RTVSPropertyOp19
 70
     1
102
RTVSPropertyOp20
 70
     1
102
RTVSPropertyOp21
 70
     1
102
RTVSPropertyOp22
 70
     1
102
RTVSPropertyOp23
 70
     1
102
RTVSPropertyOp24
 70
     1
102
RTVSPropertyOp25
 70
     1
102
RTVSPropertyOp26
 70
     1
102
RTVSPropertyOp27
 70
     1
  0
XRECORD
  5
63
102
{ACAD_REACTORS
330
62
102
}
330
62
100
AcDbXrecord
280
     1
102
RTVSPropertyOp0
 70
     1
102
RTVSPropertyOp1
 70
     1
102
RTVSPropertyOp2
 70
     1
102
RTVSPropertyOp3
 70
     1
102
RTVSPropertyOp4
 70
     1
102
RTVSPropertyOp5
 70
     1
102
RTVSPropertyOp6
 70
     1
102
RTVSPropertyOp7
 70
     1
102
RTVSPropertyOp8
 70
     1
102
RTVSPropertyOp9
 70
     1
102
RTVSPropertyOp10
 70
     1
102
RTVSPropertyOp11
 70
     1
102
RTVSPropertyOp12
 70
     1
102
RTVSPropertyOp13
 70
     1
102
RTVSPropertyOp14
 70
     1
102
RTVSPropertyOp15
 70
     1
102
RTVSPropertyOp16
 70
     1
102
RTVSPropertyOp17
 70
     1
102
RTVSPropertyOp18
 70
     1
102
RTVSPropertyOp19
 70
     1
102
RTVSPropertyOp20
 70
     1
102
RTVSPropertyOp21
 70
     1
102
RTVSPropertyOp22
 70
     1
102
RTVSPropertyOp23
 70
     1
102
RTVSPropertyOp24
 70
     1
102
RTVSPropertyOp25
 70
     1
102
RTVSPropertyOp26
 70
     1
102
RTVSPropertyOp27
 70
     1
  0
XRECORD
  5
6B
102
{ACAD_REACTORS
330
6A
102
}
330
6A
100
AcDbXrecord
280
     1
102
RTVSPropertyOp0
 70
     1
102
RTVSPropertyOp1
 70
     1
102
RTVSPropertyOp2
 70
     1
102
RTVSPropertyOp3
 70
     1
102
RTVSPropertyOp4
 70
     1
102
RTVSPropertyOp5
 70
     1
102
RTVSPropertyOp6
 70
     1
102
RTVSPropertyOp7
 70
     1
102
RTVSPropertyOp8
 70
     1
102
RTVSPropertyOp9
 70
     1
102
RTVSPropertyOp10
 70
     1
102
RTVSPropertyOp11
 70
     1
102
RTVSPropertyOp12
 70
     1
102
RTVSPropertyOp13
 70
     1
102
RTVSPropertyOp14
 70
     1
102
RTVSPropertyOp15
 70
     1
102
RTVSPropertyOp16
 70
     1
102
RTVSPropertyOp17
 70
     1
102
RTVSPropertyOp18
 70
     1
102
RTVSPropertyOp19
 70
     1
102
RTVSPropertyOp20
 70
     1
102
RTVSPropertyOp21
 70
     1
102
RTVSPropertyOp22
 70
     1
102
RTVSPropertyOp23
 70
     1
102
RTVSPropertyOp24
 70
     1
102
RTVSPropertyOp25
 70
     1
102
RTVSPropertyOp26
 70
     1
102
RTVSPropertyOp27
 70
     1
  0
XRECORD
  5
5F
102
{ACAD_REACTORS
330
5E
102
}
330
5E
100
AcDbXrecord
280
     1
102
RTVSPropertyOp0
 70
     1
102
RTVSPropertyOp1
 70
     1
102
RTVSPropertyOp2
 70
     1
102
RTVSPropertyOp3
 70
     1
102
RTVSPropertyOp4
 70
     1
102
RTVSPropertyOp5
 70
     1
102
RTVSPropertyOp6
 70
     1
102
RTVSPropertyOp7
 70
     1
102
RTVSPropertyOp8
 70
     1
102
RTVSPropertyOp9
 70
     1
102
RTVSPropertyOp10
 70
     1
102
RTVSPropertyOp11
 70
     1
102
RTVSPropertyOp12
 70
     1
102
RTVSPropertyOp13
 70
     1
102
RTVSPropertyOp14
 70
     1
102
RTVSPropertyOp15
 70
     1
102
RTVSPropertyOp16
 70
     1
102
RTVSPropertyOp17
 70
     1
102
RTVSPropertyOp18
 70
     1
102
RTVSPropertyOp19
 70
     1
102
RTVSPropertyOp20
 70
     1
102
RTVSPropertyOp21
 70
     1
102
RTVSPropertyOp22
 70
     1
102
RTVSPropertyOp23
 70
     1
102
RTVSPropertyOp24
 70
     1
102
RTVSPropertyOp25
 70
     1
102
RTVSPropertyOp26
 70
     1
102
RTVSPropertyOp27
 70
     1
  0
XRECORD
  5
61
102
{ACAD_REACTORS
330
60
102
}
330
60
100
AcDbXrecord
280
     1
102
RTVSPropertyOp0
 70
     1
102
RTVSPropertyOp1
 70
     1
102
RTVSPropertyOp2
 70
     1
102
RTVSPropertyOp3
 70
     1
102
RTVSPropertyOp4
 70
     1
102
RTVSPropertyOp5
 70
     1
102
RTVSPropertyOp6
 70
     1
102
RTVSPropertyOp7
 70
     1
102
RTVSPropertyOp8
 70
     1
102
RTVSPropertyOp9
 70
     1
102
RTVSPropertyOp10
 70
     1
102
RTVSPropertyOp11
 70
     1
102
RTVSPropertyOp12
 70
     1
102
RTVSPropertyOp13
 70
     1
102
RTVSPropertyOp14
 70
     1
102
RTVSPropertyOp15
 70
     1
102
RTVSPropertyOp16
 70
     1
102
RTVSPropertyOp17
 70
     1
102
RTVSPropertyOp18
 70
     1
102
RTVSPropertyOp19
 70
     1
102
RTVSPropertyOp20
 70
     1
102
RTVSPropertyOp21
 70
     1
102
RTVSPropertyOp22
 70
     1
102
RTVSPropertyOp23
 70
     1
102
RTVSPropertyOp24
 70
     1
102
RTVSPropertyOp25
 70
     1
102
RTVSPropertyOp26
 70
     1
102
RTVSPropertyOp27
 70
     1
  0
XRECORD
  5
69
102
{ACAD_REACTORS
330
68
102
}
330
68
100
AcDbXrecord
280
     1
102
RTVSPropertyOp0
 70
     1
102
RTVSPropertyOp1
 70
     1
102
RTVSPropertyOp2
 70
     1
102
RTVSPropertyOp3
 70
     1
102
RTVSPropertyOp4
 70
     1
102
RTVSPropertyOp5
 70
     1
102
RTVSPropertyOp6
 70
     1
102
RTVSPropertyOp7
 70
     1
102
RTVSPropertyOp8
 70
     1
102
RTVSPropertyOp9
 70
     1
102
RTVSPropertyOp10
 70
     1
102
RTVSPropertyOp11
 70
     1
102
RTVSPropertyOp12
 70
     1
102
RTVSPropertyOp13
 70
     1
102
RTVSPropertyOp14
 70
     1
102
RTVSPropertyOp15
 70
     1
102
RTVSPropertyOp16
 70
     1
102
RTVSPropertyOp17
 70
     1
102
RTVSPropertyOp18
 70
     1
102
RTVSPropertyOp19
 70
     1
102
RTVSPropertyOp20
 70
     1
102
RTVSPropertyOp21
 70
     1
102
RTVSPropertyOp22
 70
     1
102
RTVSPropertyOp23
 70
     1
102
RTVSPropertyOp24
 70
     1
102
RTVSPropertyOp25
 70
     1
102
RTVSPropertyOp26
 70
     1
102
RTVSPropertyOp27
 70
     1
  0
XRECORD
  5
4D
102
{ACAD_REACTORS
330
4C
102
}
330
4C
100
AcDbXrecord
280
     1
102
RTVSPropertyOp0
 70
     1
102
RTVSPropertyOp1
 70
     1
102
RTVSPropertyOp2
 70
     1
102
RTVSPropertyOp3
 70
     1
102
RTVSPropertyOp4
 70
     1
102
RTVSPropertyOp5
 70
     1
102
RTVSPropertyOp6
 70
     1
102
RTVSPropertyOp7
 70
     1
102
RTVSPropertyOp8
 70
     1
102
RTVSPropertyOp9
 70
     1
102
RTVSPropertyOp10
 70
     1
102
RTVSPropertyOp11
 70
     1
102
RTVSPropertyOp12
 70
     1
102
RTVSPropertyOp13
 70
     1
102
RTVSPropertyOp14
 70
     1
102
RTVSPropertyOp15
 70
     1
102
RTVSPropertyOp16
 70
     1
102
RTVSPropertyOp17
 70
     1
102
RTVSPropertyOp18
 70
     1
102
RTVSPropertyOp19
 70
     1
102
RTVSPropertyOp20
 70
     1
102
RTVSPropertyOp21
 70
     1
102
RTVSPropertyOp22
 70
     1
102
RTVSPropertyOp23
 70
     1
102
RTVSPropertyOp24
 70
     1
102
RTVSPropertyOp25
 70
     1
102
RTVSPropertyOp26
 70
     1
102
RTVSPropertyOp27
 70
     1
  0
XRECORD
  5
4F
102
{ACAD_REACTORS
330
4E
102
}
330
4E
100
AcDbXrecord
280
     1
102
RTVSPropertyOp0
 70
     1
102
RTVSPropertyOp1
 70
     1
102
RTVSPropertyOp2
 70
     1
102
RTVSPropertyOp3
 70
     1
102
RTVSPropertyOp4
 70
     1
102
RTVSPropertyOp5
 70
     1
102
RTVSPropertyOp6
 70
     1
102
RTVSPropertyOp7
 70
     1
102
RTVSPropertyOp8
 70
     1
102
RTVSPropertyOp9
 70
     1
102
RTVSPropertyOp10
 70
     1
102
RTVSPropertyOp11
 70
     1
102
RTVSPropertyOp12
 70
     1
102
RTVSPropertyOp13
 70
     1
102
RTVSPropertyOp14
 70
     1
102
RTVSPropertyOp15
 70
     1
102
RTVSPropertyOp16
 70
     1
102
RTVSPropertyOp17
 70
     1
102
RTVSPropertyOp18
 70
     1
102
RTVSPropertyOp19
 70
     1
102
RTVSPropertyOp20
 70
     1
102
RTVSPropertyOp21
 70
     1
102
RTVSPropertyOp22
 70
     1
102
RTVSPropertyOp23
 70
     1
102
RTVSPropertyOp24
 70
     1
102
RTVSPropertyOp25
 70
     1
102
RTVSPropertyOp26
 70
     1
102
RTVSPropertyOp27
 70
     1
  0
XRECORD
  5
51
102
{ACAD_REACTORS
330
50
102
}
330
50
100
AcDbXrecord
280
     1
102
RTVSPropertyOp0
 70
     1
102
RTVSPropertyOp1
 70
     1
102
RTVSPropertyOp2
 70
     1
102
RTVSPropertyOp3
 70
     1
102
RTVSPropertyOp4
 70
     1
102
RTVSPropertyOp5
 70
     1
102
RTVSPropertyOp6
 70
     1
102
RTVSPropertyOp7
 70
     1
102
RTVSPropertyOp8
 70
     1
102
RTVSPropertyOp9
 70
     1
102
RTVSPropertyOp10
 70
     1
102
RTVSPropertyOp11
 70
     1
102
RTVSPropertyOp12
 70
     1
102
RTVSPropertyOp13
 70
     1
102
RTVSPropertyOp14
 70
     1
102
RTVSPropertyOp15
 70
     1
102
RTVSPropertyOp16
 70
     1
102
RTVSPropertyOp17
 70
     1
102
RTVSPropertyOp18
 70
     1
102
RTVSPropertyOp19
 70
     1
102
RTVSPropertyOp20
 70
     1
102
RTVSPropertyOp21
 70
     1
102
RTVSPropertyOp22
 70
     1
102
RTVSPropertyOp23
 70
     1
102
RTVSPropertyOp24
 70
     1
102
RTVSPropertyOp25
 70
     1
102
RTVSPropertyOp26
 70
     1
102
RTVSPropertyOp27
 70
     1
  0
XRECORD
  5
53
102
{ACAD_REACTORS
330
52
102
}
330
52
100
AcDbXrecord
280
     1
102
RTVSPropertyOp0
 70
     1
102
RTVSPropertyOp1
 70
     1
102
RTVSPropertyOp2
 70
     1
102
RTVSPropertyOp3
 70
     1
102
RTVSPropertyOp4
 70
     1
102
RTVSPropertyOp5
 70
     1
102
RTVSPropertyOp6
 70
     1
102
RTVSPropertyOp7
 70
     1
102
RTVSPropertyOp8
 70
     1
102
RTVSPropertyOp9
 70
     1
102
RTVSPropertyOp10
 70
     1
102
RTVSPropertyOp11
 70
     1
102
RTVSPropertyOp12
 70
     1
102
RTVSPropertyOp13
 70
     1
102
RTVSPropertyOp14
 70
     1
102
RTVSPropertyOp15
 70
     1
102
RTVSPropertyOp16
 70
     1
102
RTVSPropertyOp17
 70
     1
102
RTVSPropertyOp18
 70
     1
102
RTVSPropertyOp19
 70
     1
102
RTVSPropertyOp20
 70
     1
102
RTVSPropertyOp21
 70
     1
102
RTVSPropertyOp22
 70
     1
102
RTVSPropertyOp23
 70
     1
102
RTVSPropertyOp24
 70
     1
102
RTVSPropertyOp25
 70
     1
102
RTVSPropertyOp26
 70
     1
102
RTVSPropertyOp27
 70
     1
  0
XRECORD
  5
67
102
{ACAD_REACTORS
330
66
102
}
330
66
100
AcDbXrecord
280
     1
102
RTVSPropertyOp0
 70
     1
102
RTVSPropertyOp1
 70
     1
102
RTVSPropertyOp2
 70
     1
102
RTVSPropertyOp3
 70
     1
102
RTVSPropertyOp4
 70
     1
102
RTVSPropertyOp5
 70
     1
102
RTVSPropertyOp6
 70
     1
102
RTVSPropertyOp7
 70
     1
102
RTVSPropertyOp8
 70
     1
102
RTVSPropertyOp9
 70
     1
102
RTVSPropertyOp10
 70
     1
102
RTVSPropertyOp11
 70
     1
102
RTVSPropertyOp12
 70
     1
102
RTVSPropertyOp13
 70
     1
102
RTVSPropertyOp14
 70
     1
102
RTVSPropertyOp15
 70
     1
102
RTVSPropertyOp16
 70
     1
102
RTVSPropertyOp17
 70
     1
102
RTVSPropertyOp18
 70
     1
102
RTVSPropertyOp19
 70
     1
102
RTVSPropertyOp20
 70
     1
102
RTVSPropertyOp21
 70
     1
102
RTVSPropertyOp22
 70
     1
102
RTVSPropertyOp23
 70
     1
102
RTVSPropertyOp24
 70
     1
102
RTVSPropertyOp25
 70
     1
102
RTVSPropertyOp26
 70
     1
102
RTVSPropertyOp27
 70
     1
  0
XRECORD
  5
5D
102
{ACAD_REACTORS
330
5C
102
}
330
5C
100
AcDbXrecord
280
     1
102
RTVSPropertyOp0
 70
     1
102
RTVSPropertyOp1
 70
     1
102
RTVSPropertyOp2
 70
     1
102
RTVSPropertyOp3
 70
     1
102
RTVSPropertyOp4
 70
     1
102
RTVSPropertyOp5
 70
     1
102
RTVSPropertyOp6
 70
     1
102
RTVSPropertyOp7
 70
     1
102
RTVSPropertyOp8
 70
     1
102
RTVSPropertyOp9
 70
     1
102
RTVSPropertyOp10
 70
     1
102
RTVSPropertyOp11
 70
     1
102
RTVSPropertyOp12
 70
     1
102
RTVSPropertyOp13
 70
     1
102
RTVSPropertyOp14
 70
     1
102
RTVSPropertyOp15
 70
     1
102
RTVSPropertyOp16
 70
     1
102
RTVSPropertyOp17
 70
     1
102
RTVSPropertyOp18
 70
     1
102
RTVSPropertyOp19
 70
     1
102
RTVSPropertyOp20
 70
     1
102
RTVSPropertyOp21
 70
     1
102
RTVSPropertyOp22
 70
     1
102
RTVSPropertyOp23
 70
     1
102
RTVSPropertyOp24
 70
     1
102
RTVSPropertyOp25
 70
     1
102
RTVSPropertyOp26
 70
     1
102
RTVSPropertyOp27
 70
     1
  0
XRECORD
  5
65
102
{ACAD_REACTORS
330
64
102
}
330
64
100
AcDbXrecord
280
     1
102
RTVSPropertyOp0
 70
     1
102
RTVSPropertyOp1
 70
     1
102
RTVSPropertyOp2
 70
     1
102
RTVSPropertyOp3
 70
     1
102
RTVSPropertyOp4
 70
     1
102
RTVSPropertyOp5
 70
     1
102
RTVSPropertyOp6
 70
     1
102
RTVSPropertyOp7
 70
     1
102
RTVSPropertyOp8
 70
     1
102
RTVSPropertyOp9
 70
     1
102
RTVSPropertyOp10
 70
     1
102
RTVSPropertyOp11
 70
     1
102
RTVSPropertyOp12
 70
     1
102
RTVSPropertyOp13
 70
     1
102
RTVSPropertyOp14
 70
     1
102
RTVSPropertyOp15
 70
     1
102
RTVSPropertyOp16
 70
     1
102
RTVSPropertyOp17
 70
     1
102
RTVSPropertyOp18
 70
     1
102
RTVSPropertyOp19
 70
     1
102
RTVSPropertyOp20
 70
     1
102
RTVSPropertyOp21
 70
     1
102
RTVSPropertyOp22
 70
     1
102
RTVSPropertyOp23
 70
     1
102
RTVSPropertyOp24
 70
     1
102
RTVSPropertyOp25
 70
     1
102
RTVSPropertyOp26
 70
     1
102
RTVSPropertyOp27
 70
     1
  0
ENDSEC
  0
EOF
